<mxfile host="app.diagrams.net" agent="Mozilla/5.0 (Windows NT 10.0; Win64; x64) AppleWebKit/537.36 (KHTML, like Gecko) Chrome/132.0.0.0 Safari/537.36" version="26.0.7" pages="6">
  <diagram name="PÃ¡gina-1" id="XloYq25HJcCcnfRUe0Ro">
    <mxGraphModel dx="1050" dy="522" grid="0" gridSize="10" guides="1" tooltips="1" connect="1" arrows="1" fold="1" page="1" pageScale="1" pageWidth="1169" pageHeight="827" math="0" shadow="0">
      <root>
        <mxCell id="0" />
        <mxCell id="1" parent="0" />
        <mxCell id="NcR7DXZT888S4W0Bdhjg-40" value="" style="rounded=0;whiteSpace=wrap;html=1;fillColor=default;" parent="1" vertex="1">
          <mxGeometry x="80" y="129" width="1040" height="400" as="geometry" />
        </mxCell>
        <mxCell id="NcR7DXZT888S4W0Bdhjg-14" value="Extract, Transform, Load" style="swimlane;fontSize=14;" parent="1" vertex="1">
          <mxGeometry x="120" y="160" width="280" height="340" as="geometry" />
        </mxCell>
        <mxCell id="NcR7DXZT888S4W0Bdhjg-4" value="" style="sketch=0;points=[[0,0,0],[0.25,0,0],[0.5,0,0],[0.75,0,0],[1,0,0],[0,1,0],[0.25,1,0],[0.5,1,0],[0.75,1,0],[1,1,0],[0,0.25,0],[0,0.5,0],[0,0.75,0],[1,0.25,0],[1,0.5,0],[1,0.75,0]];outlineConnect=0;fontColor=#232F3E;fillColor=#DD344C;strokeColor=#ffffff;dashed=0;verticalLabelPosition=bottom;verticalAlign=top;align=center;html=1;fontSize=12;fontStyle=0;aspect=fixed;shape=mxgraph.aws4.resourceIcon;resIcon=mxgraph.aws4.artifact;" parent="NcR7DXZT888S4W0Bdhjg-14" vertex="1">
          <mxGeometry x="30" y="182" width="40" height="40" as="geometry" />
        </mxCell>
        <mxCell id="NcR7DXZT888S4W0Bdhjg-6" value="" style="sketch=0;points=[[0,0,0],[0.25,0,0],[0.5,0,0],[0.75,0,0],[1,0,0],[0,1,0],[0.25,1,0],[0.5,1,0],[0.75,1,0],[1,1,0],[0,0.25,0],[0,0.5,0],[0,0.75,0],[1,0.25,0],[1,0.5,0],[1,0.75,0]];outlineConnect=0;fontColor=#232F3E;fillColor=#DD344C;strokeColor=#ffffff;dashed=0;verticalLabelPosition=bottom;verticalAlign=top;align=center;html=1;fontSize=12;fontStyle=0;aspect=fixed;shape=mxgraph.aws4.resourceIcon;resIcon=mxgraph.aws4.artifact;" parent="NcR7DXZT888S4W0Bdhjg-14" vertex="1">
          <mxGeometry x="90" y="182" width="40" height="40" as="geometry" />
        </mxCell>
        <mxCell id="NcR7DXZT888S4W0Bdhjg-8" value="" style="sketch=0;points=[[0,0,0],[0.25,0,0],[0.5,0,0],[0.75,0,0],[1,0,0],[0,1,0],[0.25,1,0],[0.5,1,0],[0.75,1,0],[1,1,0],[0,0.25,0],[0,0.5,0],[0,0.75,0],[1,0.25,0],[1,0.5,0],[1,0.75,0]];outlineConnect=0;fontColor=#232F3E;fillColor=#DD344C;strokeColor=#ffffff;dashed=0;verticalLabelPosition=bottom;verticalAlign=top;align=center;html=1;fontSize=12;fontStyle=0;aspect=fixed;shape=mxgraph.aws4.resourceIcon;resIcon=mxgraph.aws4.artifact;" parent="NcR7DXZT888S4W0Bdhjg-14" vertex="1">
          <mxGeometry x="150" y="182" width="40" height="40" as="geometry" />
        </mxCell>
        <mxCell id="NcR7DXZT888S4W0Bdhjg-10" value="" style="sketch=0;points=[[0,0,0],[0.25,0,0],[0.5,0,0],[0.75,0,0],[1,0,0],[0,1,0],[0.25,1,0],[0.5,1,0],[0.75,1,0],[1,1,0],[0,0.25,0],[0,0.5,0],[0,0.75,0],[1,0.25,0],[1,0.5,0],[1,0.75,0]];outlineConnect=0;fontColor=#232F3E;fillColor=#DD344C;strokeColor=#ffffff;dashed=0;verticalLabelPosition=bottom;verticalAlign=top;align=center;html=1;fontSize=12;fontStyle=0;aspect=fixed;shape=mxgraph.aws4.resourceIcon;resIcon=mxgraph.aws4.artifact;" parent="NcR7DXZT888S4W0Bdhjg-14" vertex="1">
          <mxGeometry x="210" y="182" width="40" height="40" as="geometry" />
        </mxCell>
        <mxCell id="NcR7DXZT888S4W0Bdhjg-9" value="" style="shape=image;html=1;verticalAlign=top;verticalLabelPosition=bottom;labelBackgroundColor=#ffffff;imageAspect=0;aspect=fixed;image=https://cdn4.iconfinder.com/data/icons/social-media-and-logos-12/32/Logo_reddit_robot-128.png" parent="NcR7DXZT888S4W0Bdhjg-14" vertex="1">
          <mxGeometry x="210" y="97" width="40" height="40" as="geometry" />
        </mxCell>
        <mxCell id="NcR7DXZT888S4W0Bdhjg-20" style="edgeStyle=orthogonalEdgeStyle;rounded=0;orthogonalLoop=1;jettySize=auto;html=1;entryX=0.5;entryY=0;entryDx=0;entryDy=0;entryPerimeter=0;dashed=1;strokeWidth=2;strokeColor=#7EA6E0;flowAnimation=1;" parent="NcR7DXZT888S4W0Bdhjg-14" source="NcR7DXZT888S4W0Bdhjg-9" target="NcR7DXZT888S4W0Bdhjg-10" edge="1">
          <mxGeometry relative="1" as="geometry" />
        </mxCell>
        <mxCell id="NcR7DXZT888S4W0Bdhjg-7" value="" style="shape=image;html=1;verticalAlign=top;verticalLabelPosition=bottom;labelBackgroundColor=#ffffff;imageAspect=0;aspect=fixed;image=https://cdn4.iconfinder.com/data/icons/social-media-and-logos-12/32/Logo_reddit_robot-128.png" parent="NcR7DXZT888S4W0Bdhjg-14" vertex="1">
          <mxGeometry x="150" y="97" width="40" height="40" as="geometry" />
        </mxCell>
        <mxCell id="NcR7DXZT888S4W0Bdhjg-19" style="edgeStyle=orthogonalEdgeStyle;rounded=0;orthogonalLoop=1;jettySize=auto;html=1;entryX=0.5;entryY=0;entryDx=0;entryDy=0;entryPerimeter=0;dashed=1;strokeWidth=2;strokeColor=#7EA6E0;flowAnimation=1;" parent="NcR7DXZT888S4W0Bdhjg-14" source="NcR7DXZT888S4W0Bdhjg-7" target="NcR7DXZT888S4W0Bdhjg-8" edge="1">
          <mxGeometry relative="1" as="geometry" />
        </mxCell>
        <mxCell id="NcR7DXZT888S4W0Bdhjg-5" value="" style="shape=image;html=1;verticalAlign=top;verticalLabelPosition=bottom;labelBackgroundColor=#ffffff;imageAspect=0;aspect=fixed;image=https://cdn4.iconfinder.com/data/icons/social-media-and-logos-12/32/Logo_reddit_robot-128.png" parent="NcR7DXZT888S4W0Bdhjg-14" vertex="1">
          <mxGeometry x="90" y="97" width="40" height="40" as="geometry" />
        </mxCell>
        <mxCell id="NcR7DXZT888S4W0Bdhjg-18" style="edgeStyle=orthogonalEdgeStyle;rounded=0;orthogonalLoop=1;jettySize=auto;html=1;entryX=0.5;entryY=0;entryDx=0;entryDy=0;entryPerimeter=0;dashed=1;strokeWidth=2;strokeColor=#7EA6E0;flowAnimation=1;" parent="NcR7DXZT888S4W0Bdhjg-14" source="NcR7DXZT888S4W0Bdhjg-5" target="NcR7DXZT888S4W0Bdhjg-6" edge="1">
          <mxGeometry relative="1" as="geometry" />
        </mxCell>
        <mxCell id="NcR7DXZT888S4W0Bdhjg-3" value="" style="shape=image;html=1;verticalAlign=top;verticalLabelPosition=bottom;labelBackgroundColor=#ffffff;imageAspect=0;aspect=fixed;image=https://cdn4.iconfinder.com/data/icons/social-media-and-logos-12/32/Logo_reddit_robot-128.png" parent="NcR7DXZT888S4W0Bdhjg-14" vertex="1">
          <mxGeometry x="30" y="97" width="40" height="40" as="geometry" />
        </mxCell>
        <mxCell id="NcR7DXZT888S4W0Bdhjg-17" style="edgeStyle=orthogonalEdgeStyle;rounded=0;orthogonalLoop=1;jettySize=auto;html=1;exitX=0.5;exitY=1;exitDx=0;exitDy=0;entryX=0.5;entryY=0;entryDx=0;entryDy=0;entryPerimeter=0;dashed=1;strokeWidth=2;strokeColor=#7EA6E0;flowAnimation=1;" parent="NcR7DXZT888S4W0Bdhjg-14" source="NcR7DXZT888S4W0Bdhjg-3" target="NcR7DXZT888S4W0Bdhjg-4" edge="1">
          <mxGeometry relative="1" as="geometry" />
        </mxCell>
        <mxCell id="NcR7DXZT888S4W0Bdhjg-50" style="edgeStyle=orthogonalEdgeStyle;rounded=0;orthogonalLoop=1;jettySize=auto;html=1;exitX=0.5;exitY=1;exitDx=0;exitDy=0;exitPerimeter=0;entryX=0.5;entryY=0;entryDx=0;entryDy=0;" parent="NcR7DXZT888S4W0Bdhjg-14" source="NcR7DXZT888S4W0Bdhjg-46" target="NcR7DXZT888S4W0Bdhjg-7" edge="1">
          <mxGeometry relative="1" as="geometry" />
        </mxCell>
        <mxCell id="NcR7DXZT888S4W0Bdhjg-46" value="" style="sketch=0;pointerEvents=1;shadow=0;dashed=0;html=1;strokeColor=none;labelPosition=center;verticalLabelPosition=bottom;verticalAlign=top;align=center;fillColor=#515151;shape=mxgraph.mscae.system_center.cloud_distribution_point" parent="NcR7DXZT888S4W0Bdhjg-14" vertex="1">
          <mxGeometry x="152" y="35" width="36" height="42" as="geometry" />
        </mxCell>
        <mxCell id="NcR7DXZT888S4W0Bdhjg-44" value="" style="sketch=0;pointerEvents=1;shadow=0;dashed=0;html=1;strokeColor=none;labelPosition=center;verticalLabelPosition=bottom;verticalAlign=top;align=center;fillColor=#515151;shape=mxgraph.mscae.system_center.cloud_distribution_point" parent="NcR7DXZT888S4W0Bdhjg-14" vertex="1">
          <mxGeometry x="32" y="35" width="36" height="42" as="geometry" />
        </mxCell>
        <mxCell id="NcR7DXZT888S4W0Bdhjg-48" style="edgeStyle=orthogonalEdgeStyle;rounded=0;orthogonalLoop=1;jettySize=auto;html=1;exitX=0.5;exitY=1;exitDx=0;exitDy=0;exitPerimeter=0;" parent="NcR7DXZT888S4W0Bdhjg-14" source="NcR7DXZT888S4W0Bdhjg-44" target="NcR7DXZT888S4W0Bdhjg-3" edge="1">
          <mxGeometry relative="1" as="geometry" />
        </mxCell>
        <mxCell id="NcR7DXZT888S4W0Bdhjg-45" value="" style="sketch=0;pointerEvents=1;shadow=0;dashed=0;html=1;strokeColor=none;labelPosition=center;verticalLabelPosition=bottom;verticalAlign=top;align=center;fillColor=#515151;shape=mxgraph.mscae.system_center.cloud_distribution_point" parent="NcR7DXZT888S4W0Bdhjg-14" vertex="1">
          <mxGeometry x="95" y="35" width="36" height="42" as="geometry" />
        </mxCell>
        <mxCell id="NcR7DXZT888S4W0Bdhjg-49" style="edgeStyle=orthogonalEdgeStyle;rounded=0;orthogonalLoop=1;jettySize=auto;html=1;exitX=0.5;exitY=1;exitDx=0;exitDy=0;exitPerimeter=0;entryX=0.5;entryY=0;entryDx=0;entryDy=0;" parent="NcR7DXZT888S4W0Bdhjg-14" source="NcR7DXZT888S4W0Bdhjg-45" target="NcR7DXZT888S4W0Bdhjg-5" edge="1">
          <mxGeometry relative="1" as="geometry" />
        </mxCell>
        <mxCell id="NcR7DXZT888S4W0Bdhjg-51" style="edgeStyle=orthogonalEdgeStyle;rounded=0;orthogonalLoop=1;jettySize=auto;html=1;exitX=0.5;exitY=1;exitDx=0;exitDy=0;exitPerimeter=0;" parent="NcR7DXZT888S4W0Bdhjg-14" source="NcR7DXZT888S4W0Bdhjg-47" target="NcR7DXZT888S4W0Bdhjg-9" edge="1">
          <mxGeometry relative="1" as="geometry" />
        </mxCell>
        <mxCell id="NcR7DXZT888S4W0Bdhjg-47" value="" style="sketch=0;pointerEvents=1;shadow=0;dashed=0;html=1;strokeColor=none;labelPosition=center;verticalLabelPosition=bottom;verticalAlign=top;align=center;fillColor=#515151;shape=mxgraph.mscae.system_center.cloud_distribution_point" parent="NcR7DXZT888S4W0Bdhjg-14" vertex="1">
          <mxGeometry x="212" y="35" width="36" height="42" as="geometry" />
        </mxCell>
        <mxCell id="NcR7DXZT888S4W0Bdhjg-15" value="Database MRP" style="swimlane;fontSize=14;" parent="1" vertex="1">
          <mxGeometry x="400" y="160" width="280" height="340" as="geometry" />
        </mxCell>
        <mxCell id="NcR7DXZT888S4W0Bdhjg-11" value="" style="image;aspect=fixed;perimeter=ellipsePerimeter;html=1;align=center;shadow=0;dashed=0;spacingTop=3;image=img/lib/active_directory/database_server.svg;" parent="NcR7DXZT888S4W0Bdhjg-15" vertex="1">
          <mxGeometry x="90.8" y="110" width="98.4" height="120" as="geometry" />
        </mxCell>
        <mxCell id="NcR7DXZT888S4W0Bdhjg-37" value="&lt;font color=&quot;#ff0000&quot;&gt;&lt;b&gt;processed data&lt;/b&gt;&lt;/font&gt;" style="text;html=1;align=center;verticalAlign=middle;whiteSpace=wrap;rounded=0;" parent="NcR7DXZT888S4W0Bdhjg-15" vertex="1">
          <mxGeometry x="8" y="285" width="60" height="30" as="geometry" />
        </mxCell>
        <mxCell id="NcR7DXZT888S4W0Bdhjg-41" value="Endpoint" style="rounded=0;whiteSpace=wrap;html=1;" parent="NcR7DXZT888S4W0Bdhjg-15" vertex="1">
          <mxGeometry x="50.5" y="246" width="179" height="16" as="geometry" />
        </mxCell>
        <mxCell id="NcR7DXZT888S4W0Bdhjg-42" value="Endpoint" style="rounded=0;whiteSpace=wrap;html=1;rotation=-90;" parent="NcR7DXZT888S4W0Bdhjg-15" vertex="1">
          <mxGeometry x="172" y="162" width="108" height="16" as="geometry" />
        </mxCell>
        <mxCell id="NcR7DXZT888S4W0Bdhjg-16" value="Visibility Dashboard" style="swimlane;fontSize=14;" parent="1" vertex="1">
          <mxGeometry x="680" y="160" width="280" height="340" as="geometry" />
        </mxCell>
        <mxCell id="NcR7DXZT888S4W0Bdhjg-13" value="" style="sketch=0;pointerEvents=1;shadow=0;dashed=0;html=1;strokeColor=none;fillColor=#434445;aspect=fixed;labelPosition=center;verticalLabelPosition=bottom;verticalAlign=top;align=center;outlineConnect=0;shape=mxgraph.vvd.nsx_dashboard;" parent="NcR7DXZT888S4W0Bdhjg-16" vertex="1">
          <mxGeometry x="77.00000000000001" y="120" width="107.53" height="100" as="geometry" />
        </mxCell>
        <mxCell id="NcR7DXZT888S4W0Bdhjg-22" style="edgeStyle=orthogonalEdgeStyle;rounded=0;orthogonalLoop=1;jettySize=auto;html=1;strokeWidth=2;dashed=1;strokeColor=#009900;flowAnimation=1;entryX=0.677;entryY=1.049;entryDx=0;entryDy=0;entryPerimeter=0;" parent="1" source="NcR7DXZT888S4W0Bdhjg-4" target="NcR7DXZT888S4W0Bdhjg-41" edge="1">
          <mxGeometry relative="1" as="geometry">
            <Array as="points">
              <mxPoint x="170" y="442" />
              <mxPoint x="572" y="442" />
            </Array>
          </mxGeometry>
        </mxCell>
        <mxCell id="NcR7DXZT888S4W0Bdhjg-23" style="edgeStyle=orthogonalEdgeStyle;rounded=0;orthogonalLoop=1;jettySize=auto;html=1;exitX=0.5;exitY=1;exitDx=0;exitDy=0;exitPerimeter=0;strokeWidth=2;dashed=1;strokeColor=#009900;flowAnimation=1;entryX=0.5;entryY=1;entryDx=0;entryDy=0;" parent="1" source="NcR7DXZT888S4W0Bdhjg-6" target="NcR7DXZT888S4W0Bdhjg-41" edge="1">
          <mxGeometry relative="1" as="geometry" />
        </mxCell>
        <mxCell id="NcR7DXZT888S4W0Bdhjg-24" style="edgeStyle=orthogonalEdgeStyle;rounded=0;orthogonalLoop=1;jettySize=auto;html=1;exitX=0.5;exitY=1;exitDx=0;exitDy=0;exitPerimeter=0;strokeWidth=2;dashed=1;strokeColor=#009900;flowAnimation=1;entryX=0.394;entryY=1.049;entryDx=0;entryDy=0;entryPerimeter=0;" parent="1" source="NcR7DXZT888S4W0Bdhjg-8" target="NcR7DXZT888S4W0Bdhjg-41" edge="1">
          <mxGeometry relative="1" as="geometry" />
        </mxCell>
        <mxCell id="NcR7DXZT888S4W0Bdhjg-25" style="edgeStyle=orthogonalEdgeStyle;rounded=0;orthogonalLoop=1;jettySize=auto;html=1;exitX=0.5;exitY=1;exitDx=0;exitDy=0;exitPerimeter=0;strokeWidth=2;dashed=1;strokeColor=#009900;flowAnimation=1;entryX=0.25;entryY=1;entryDx=0;entryDy=0;" parent="1" source="NcR7DXZT888S4W0Bdhjg-10" target="NcR7DXZT888S4W0Bdhjg-41" edge="1">
          <mxGeometry relative="1" as="geometry" />
        </mxCell>
        <mxCell id="NcR7DXZT888S4W0Bdhjg-31" style="edgeStyle=orthogonalEdgeStyle;rounded=0;orthogonalLoop=1;jettySize=auto;html=1;strokeWidth=2;dashed=1;dashPattern=8 8;strokeColor=#0000FF;flowAnimation=1;" parent="1" source="NcR7DXZT888S4W0Bdhjg-26" edge="1">
          <mxGeometry relative="1" as="geometry">
            <mxPoint x="930" y="330" as="targetPoint" />
          </mxGeometry>
        </mxCell>
        <mxCell id="NcR7DXZT888S4W0Bdhjg-26" value="" style="points=[[0.35,0,0],[0.98,0.51,0],[1,0.71,0],[0.67,1,0],[0,0.795,0],[0,0.65,0]];verticalLabelPosition=bottom;sketch=0;html=1;verticalAlign=top;aspect=fixed;align=center;pointerEvents=1;shape=mxgraph.cisco19.user;fillColor=#005073;strokeColor=none;" parent="1" vertex="1">
          <mxGeometry x="1040" y="220" width="50" height="50" as="geometry" />
        </mxCell>
        <mxCell id="NcR7DXZT888S4W0Bdhjg-32" style="edgeStyle=orthogonalEdgeStyle;rounded=0;orthogonalLoop=1;jettySize=auto;html=1;strokeWidth=2;dashed=1;dashPattern=8 8;strokeColor=#0000FF;flowAnimation=1;" parent="1" source="NcR7DXZT888S4W0Bdhjg-27" edge="1">
          <mxGeometry relative="1" as="geometry">
            <mxPoint x="898" y="330" as="targetPoint" />
          </mxGeometry>
        </mxCell>
        <mxCell id="NcR7DXZT888S4W0Bdhjg-27" value="" style="points=[[0.35,0,0],[0.98,0.51,0],[1,0.71,0],[0.67,1,0],[0,0.795,0],[0,0.65,0]];verticalLabelPosition=bottom;sketch=0;html=1;verticalAlign=top;aspect=fixed;align=center;pointerEvents=1;shape=mxgraph.cisco19.user;fillColor=#005073;strokeColor=none;" parent="1" vertex="1">
          <mxGeometry x="1040" y="290" width="50" height="50" as="geometry" />
        </mxCell>
        <mxCell id="NcR7DXZT888S4W0Bdhjg-33" style="edgeStyle=orthogonalEdgeStyle;rounded=0;orthogonalLoop=1;jettySize=auto;html=1;strokeWidth=2;dashed=1;dashPattern=8 8;strokeColor=#0000FF;flowAnimation=1;" parent="1" source="NcR7DXZT888S4W0Bdhjg-28" edge="1">
          <mxGeometry relative="1" as="geometry">
            <mxPoint x="930" y="330" as="targetPoint" />
          </mxGeometry>
        </mxCell>
        <mxCell id="NcR7DXZT888S4W0Bdhjg-28" value="" style="points=[[0.35,0,0],[0.98,0.51,0],[1,0.71,0],[0.67,1,0],[0,0.795,0],[0,0.65,0]];verticalLabelPosition=bottom;sketch=0;html=1;verticalAlign=top;aspect=fixed;align=center;pointerEvents=1;shape=mxgraph.cisco19.user;fillColor=#005073;strokeColor=none;" parent="1" vertex="1">
          <mxGeometry x="1040" y="360" width="50" height="50" as="geometry" />
        </mxCell>
        <mxCell id="NcR7DXZT888S4W0Bdhjg-34" style="edgeStyle=orthogonalEdgeStyle;rounded=0;orthogonalLoop=1;jettySize=auto;html=1;strokeWidth=2;dashed=1;dashPattern=8 8;strokeColor=#0000FF;flowAnimation=1;" parent="1" source="NcR7DXZT888S4W0Bdhjg-29" edge="1">
          <mxGeometry relative="1" as="geometry">
            <mxPoint x="930" y="330" as="targetPoint" />
          </mxGeometry>
        </mxCell>
        <mxCell id="NcR7DXZT888S4W0Bdhjg-29" value="" style="points=[[0.35,0,0],[0.98,0.51,0],[1,0.71,0],[0.67,1,0],[0,0.795,0],[0,0.65,0]];verticalLabelPosition=bottom;sketch=0;html=1;verticalAlign=top;aspect=fixed;align=center;pointerEvents=1;shape=mxgraph.cisco19.user;fillColor=#005073;strokeColor=none;" parent="1" vertex="1">
          <mxGeometry x="1040" y="430" width="50" height="50" as="geometry" />
        </mxCell>
        <mxCell id="NcR7DXZT888S4W0Bdhjg-35" value="&lt;b&gt;&lt;font style=&quot;font-size: 14px;&quot;&gt;Purchasing analysts&lt;/font&gt;&lt;/b&gt;" style="text;html=1;align=center;verticalAlign=middle;whiteSpace=wrap;rounded=0;" parent="1" vertex="1">
          <mxGeometry x="1020" y="150" width="90" height="50" as="geometry" />
        </mxCell>
        <mxCell id="NcR7DXZT888S4W0Bdhjg-36" style="edgeStyle=orthogonalEdgeStyle;rounded=0;orthogonalLoop=1;jettySize=auto;html=1;strokeColor=#FF3333;strokeWidth=2;dashed=1;dashPattern=8 8;flowAnimation=1;exitX=0.5;exitY=1;exitDx=0;exitDy=0;" parent="1" source="NcR7DXZT888S4W0Bdhjg-42" target="NcR7DXZT888S4W0Bdhjg-13" edge="1">
          <mxGeometry relative="1" as="geometry">
            <mxPoint x="647" y="330" as="sourcePoint" />
          </mxGeometry>
        </mxCell>
        <mxCell id="NcR7DXZT888S4W0Bdhjg-39" value="query data" style="text;html=1;align=center;verticalAlign=middle;whiteSpace=wrap;rounded=0;fontStyle=1;fontColor=#99004D;" parent="1" vertex="1">
          <mxGeometry x="960" y="220" width="73.77" height="30" as="geometry" />
        </mxCell>
        <mxCell id="NcR7DXZT888S4W0Bdhjg-38" value="&lt;b&gt;data for analysis&lt;/b&gt;" style="text;html=1;align=center;verticalAlign=middle;whiteSpace=wrap;rounded=0;fontColor=#FF8000;" parent="1" vertex="1">
          <mxGeometry x="689" y="335" width="60" height="30" as="geometry" />
        </mxCell>
        <mxCell id="NcR7DXZT888S4W0Bdhjg-43" value="Endpoint" style="rounded=0;whiteSpace=wrap;html=1;rotation=-90;" parent="1" vertex="1">
          <mxGeometry x="832" y="324" width="108" height="16" as="geometry" />
        </mxCell>
      </root>
    </mxGraphModel>
  </diagram>
  <diagram id="HSzK31TKF2gY7tODfyRO" name="PÃ¡gina-2">
    <mxGraphModel dx="2333" dy="1160" grid="1" gridSize="10" guides="1" tooltips="1" connect="1" arrows="1" fold="1" page="1" pageScale="1" pageWidth="1169" pageHeight="827" math="0" shadow="0">
      <root>
        <mxCell id="0" />
        <mxCell id="1" parent="0" />
        <mxCell id="vLSpUDt8mHvsh3Pg1AGc-7" value="" style="rounded=0;whiteSpace=wrap;html=1;fillColor=none;" vertex="1" parent="1">
          <mxGeometry x="440" y="80" width="1470" height="680" as="geometry" />
        </mxCell>
        <mxCell id="vLSpUDt8mHvsh3Pg1AGc-6" value="" style="group" vertex="1" connectable="0" parent="1">
          <mxGeometry x="530" y="129" width="1320" height="570" as="geometry" />
        </mxCell>
        <mxCell id="eDLt4ieZa5b-b3pWyY9y-2" value="&lt;font style=&quot;font-size: 20px;&quot;&gt;Extract, Transform, Load&lt;/font&gt;" style="swimlane;whiteSpace=wrap;html=1;startSize=50;" vertex="1" parent="vLSpUDt8mHvsh3Pg1AGc-6">
          <mxGeometry width="220" height="570" as="geometry" />
        </mxCell>
        <mxCell id="jXZQnSoI7P6sengV68fE-7" value="" style="group" vertex="1" connectable="0" parent="eDLt4ieZa5b-b3pWyY9y-2">
          <mxGeometry x="50" y="199" width="100" height="100" as="geometry" />
        </mxCell>
        <mxCell id="jXZQnSoI7P6sengV68fE-5" value="RPA - BOM" style="whiteSpace=wrap;html=1;aspect=fixed;fillColor=none;" vertex="1" parent="jXZQnSoI7P6sengV68fE-7">
          <mxGeometry width="100" height="100" as="geometry" />
        </mxCell>
        <mxCell id="jXZQnSoI7P6sengV68fE-6" value="MÃ³dulo DB" style="rounded=0;whiteSpace=wrap;html=1;fillColor=none;" vertex="1" parent="jXZQnSoI7P6sengV68fE-7">
          <mxGeometry x="10" y="60" width="80" height="30" as="geometry" />
        </mxCell>
        <mxCell id="0wDL7s20ytS17QjnEz3_-1" value="" style="group" vertex="1" connectable="0" parent="eDLt4ieZa5b-b3pWyY9y-2">
          <mxGeometry x="50" y="319" width="100" height="100" as="geometry" />
        </mxCell>
        <mxCell id="jXZQnSoI7P6sengV68fE-8" value="RPA - EDW" style="whiteSpace=wrap;html=1;aspect=fixed;fillColor=none;" vertex="1" parent="0wDL7s20ytS17QjnEz3_-1">
          <mxGeometry width="100" height="100" as="geometry" />
        </mxCell>
        <mxCell id="jXZQnSoI7P6sengV68fE-9" value="MÃ³dulo DB" style="rounded=0;whiteSpace=wrap;html=1;fillColor=none;" vertex="1" parent="0wDL7s20ytS17QjnEz3_-1">
          <mxGeometry x="10" y="60" width="80" height="30" as="geometry" />
        </mxCell>
        <mxCell id="0wDL7s20ytS17QjnEz3_-2" value="" style="group" vertex="1" connectable="0" parent="eDLt4ieZa5b-b3pWyY9y-2">
          <mxGeometry x="50" y="439" width="100" height="100" as="geometry" />
        </mxCell>
        <mxCell id="jXZQnSoI7P6sengV68fE-3" value="RPA - ONHAND" style="whiteSpace=wrap;html=1;aspect=fixed;fillColor=none;" vertex="1" parent="0wDL7s20ytS17QjnEz3_-2">
          <mxGeometry width="100" height="100" as="geometry" />
        </mxCell>
        <mxCell id="jXZQnSoI7P6sengV68fE-4" value="MÃ³dulo DB" style="rounded=0;whiteSpace=wrap;html=1;fillColor=none;" vertex="1" parent="0wDL7s20ytS17QjnEz3_-2">
          <mxGeometry x="10" y="60" width="80" height="30" as="geometry" />
        </mxCell>
        <mxCell id="n6ZCLPPL8olRyC4bbD7v-1" value="" style="group" vertex="1" connectable="0" parent="eDLt4ieZa5b-b3pWyY9y-2">
          <mxGeometry x="50" y="79" width="100" height="100" as="geometry" />
        </mxCell>
        <mxCell id="RiYpvtM7n1UF9Ozoq4zp-1" value="RPA - N-FP" style="whiteSpace=wrap;html=1;aspect=fixed;fillColor=none;" vertex="1" parent="n6ZCLPPL8olRyC4bbD7v-1">
          <mxGeometry width="100" height="100" as="geometry" />
        </mxCell>
        <mxCell id="jXZQnSoI7P6sengV68fE-1" value="MÃ³dulo DB" style="rounded=0;whiteSpace=wrap;html=1;fillColor=none;" vertex="1" parent="n6ZCLPPL8olRyC4bbD7v-1">
          <mxGeometry x="10" y="60" width="80" height="30" as="geometry" />
        </mxCell>
        <mxCell id="n6ZCLPPL8olRyC4bbD7v-2" value="&lt;font style=&quot;font-size: 20px;&quot;&gt;Database&lt;/font&gt;" style="swimlane;whiteSpace=wrap;html=1;startSize=50;" vertex="1" parent="vLSpUDt8mHvsh3Pg1AGc-6">
          <mxGeometry x="220" width="510" height="570" as="geometry" />
        </mxCell>
        <mxCell id="pdo2u72SIz1vdmRKJwuy-1" value="&lt;font style=&quot;font-size: 20px;&quot;&gt;&lt;b&gt;Database MRP&lt;/b&gt;&lt;/font&gt;" style="shape=cylinder3;whiteSpace=wrap;html=1;boundedLbl=1;backgroundOutline=1;size=15;" vertex="1" parent="n6ZCLPPL8olRyC4bbD7v-2">
          <mxGeometry x="195" y="140" width="120" height="146" as="geometry" />
        </mxCell>
        <mxCell id="pdo2u72SIz1vdmRKJwuy-3" value="&lt;div style=&quot;box-sizing:border-box;width:100%;background:#e4e4e4;padding:2px;&quot;&gt;table_nfp&lt;/div&gt;&lt;table style=&quot;width:100%;font-size:1em;&quot; cellpadding=&quot;2&quot; cellspacing=&quot;0&quot;&gt;&lt;tbody&gt;&lt;tr&gt;&lt;td&gt;PK&lt;/td&gt;&lt;td&gt;uniqueId&lt;/td&gt;&lt;/tr&gt;&lt;tr&gt;&lt;td&gt;FK1&lt;/td&gt;&lt;td&gt;foreignKey&lt;/td&gt;&lt;/tr&gt;&lt;tr&gt;&lt;td&gt;&lt;/td&gt;&lt;td&gt;fieldname&lt;/td&gt;&lt;/tr&gt;&lt;/tbody&gt;&lt;/table&gt;" style="verticalAlign=top;align=left;overflow=fill;html=1;whiteSpace=wrap;" vertex="1" parent="n6ZCLPPL8olRyC4bbD7v-2">
          <mxGeometry x="40" y="340" width="100" height="90" as="geometry" />
        </mxCell>
        <mxCell id="pdo2u72SIz1vdmRKJwuy-4" value="&lt;div style=&quot;box-sizing:border-box;width:100%;background:#e4e4e4;padding:2px;&quot;&gt;table_bom&lt;/div&gt;&lt;table style=&quot;width:100%;font-size:1em;&quot; cellpadding=&quot;2&quot; cellspacing=&quot;0&quot;&gt;&lt;tbody&gt;&lt;tr&gt;&lt;td&gt;PK&lt;/td&gt;&lt;td&gt;uniqueId&lt;/td&gt;&lt;/tr&gt;&lt;tr&gt;&lt;td&gt;FK1&lt;/td&gt;&lt;td&gt;foreignKey&lt;/td&gt;&lt;/tr&gt;&lt;tr&gt;&lt;td&gt;&lt;/td&gt;&lt;td&gt;fieldname&lt;/td&gt;&lt;/tr&gt;&lt;/tbody&gt;&lt;/table&gt;" style="verticalAlign=top;align=left;overflow=fill;html=1;whiteSpace=wrap;" vertex="1" parent="n6ZCLPPL8olRyC4bbD7v-2">
          <mxGeometry x="150" y="340" width="100" height="90" as="geometry" />
        </mxCell>
        <mxCell id="pdo2u72SIz1vdmRKJwuy-5" value="&lt;div style=&quot;box-sizing:border-box;width:100%;background:#e4e4e4;padding:2px;&quot;&gt;table_edw&lt;/div&gt;&lt;table style=&quot;width:100%;font-size:1em;&quot; cellpadding=&quot;2&quot; cellspacing=&quot;0&quot;&gt;&lt;tbody&gt;&lt;tr&gt;&lt;td&gt;PK&lt;/td&gt;&lt;td&gt;uniqueId&lt;/td&gt;&lt;/tr&gt;&lt;tr&gt;&lt;td&gt;FK1&lt;/td&gt;&lt;td&gt;foreignKey&lt;/td&gt;&lt;/tr&gt;&lt;tr&gt;&lt;td&gt;&lt;/td&gt;&lt;td&gt;fieldname&lt;/td&gt;&lt;/tr&gt;&lt;/tbody&gt;&lt;/table&gt;" style="verticalAlign=top;align=left;overflow=fill;html=1;whiteSpace=wrap;" vertex="1" parent="n6ZCLPPL8olRyC4bbD7v-2">
          <mxGeometry x="260" y="340" width="100" height="90" as="geometry" />
        </mxCell>
        <mxCell id="pdo2u72SIz1vdmRKJwuy-6" value="&lt;div style=&quot;box-sizing:border-box;width:100%;background:#e4e4e4;padding:2px;&quot;&gt;table_onhand&lt;/div&gt;&lt;table style=&quot;width:100%;font-size:1em;&quot; cellpadding=&quot;2&quot; cellspacing=&quot;0&quot;&gt;&lt;tbody&gt;&lt;tr&gt;&lt;td&gt;PK&lt;/td&gt;&lt;td&gt;uniqueId&lt;/td&gt;&lt;/tr&gt;&lt;tr&gt;&lt;td&gt;FK1&lt;/td&gt;&lt;td&gt;foreignKey&lt;/td&gt;&lt;/tr&gt;&lt;tr&gt;&lt;td&gt;&lt;/td&gt;&lt;td&gt;fieldname&lt;/td&gt;&lt;/tr&gt;&lt;/tbody&gt;&lt;/table&gt;" style="verticalAlign=top;align=left;overflow=fill;html=1;whiteSpace=wrap;" vertex="1" parent="n6ZCLPPL8olRyC4bbD7v-2">
          <mxGeometry x="370" y="340" width="100" height="90" as="geometry" />
        </mxCell>
        <mxCell id="n6ZCLPPL8olRyC4bbD7v-4" style="edgeStyle=orthogonalEdgeStyle;rounded=0;orthogonalLoop=1;jettySize=auto;html=1;exitX=0.5;exitY=0;exitDx=0;exitDy=0;entryX=0;entryY=1;entryDx=0;entryDy=-15;entryPerimeter=0;" edge="1" parent="n6ZCLPPL8olRyC4bbD7v-2" source="pdo2u72SIz1vdmRKJwuy-3" target="pdo2u72SIz1vdmRKJwuy-1">
          <mxGeometry relative="1" as="geometry" />
        </mxCell>
        <mxCell id="n6ZCLPPL8olRyC4bbD7v-6" style="edgeStyle=orthogonalEdgeStyle;rounded=0;orthogonalLoop=1;jettySize=auto;html=1;exitX=0.5;exitY=0;exitDx=0;exitDy=0;entryX=0.855;entryY=1;entryDx=0;entryDy=-4.35;entryPerimeter=0;" edge="1" parent="n6ZCLPPL8olRyC4bbD7v-2" source="pdo2u72SIz1vdmRKJwuy-5" target="pdo2u72SIz1vdmRKJwuy-1">
          <mxGeometry relative="1" as="geometry" />
        </mxCell>
        <mxCell id="n6ZCLPPL8olRyC4bbD7v-7" style="edgeStyle=orthogonalEdgeStyle;rounded=0;orthogonalLoop=1;jettySize=auto;html=1;exitX=0.5;exitY=0;exitDx=0;exitDy=0;entryX=0.145;entryY=1;entryDx=0;entryDy=-4.35;entryPerimeter=0;" edge="1" parent="n6ZCLPPL8olRyC4bbD7v-2" source="pdo2u72SIz1vdmRKJwuy-4" target="pdo2u72SIz1vdmRKJwuy-1">
          <mxGeometry relative="1" as="geometry" />
        </mxCell>
        <mxCell id="n6ZCLPPL8olRyC4bbD7v-8" style="edgeStyle=orthogonalEdgeStyle;rounded=0;orthogonalLoop=1;jettySize=auto;html=1;exitX=0.5;exitY=0;exitDx=0;exitDy=0;entryX=1;entryY=1;entryDx=0;entryDy=-15;entryPerimeter=0;" edge="1" parent="n6ZCLPPL8olRyC4bbD7v-2" source="pdo2u72SIz1vdmRKJwuy-6" target="pdo2u72SIz1vdmRKJwuy-1">
          <mxGeometry relative="1" as="geometry" />
        </mxCell>
        <mxCell id="n6ZCLPPL8olRyC4bbD7v-3" value="&lt;font style=&quot;font-size: 20px;&quot;&gt;Visibility Dashoboard&lt;/font&gt;" style="swimlane;whiteSpace=wrap;html=1;startSize=50;" vertex="1" parent="vLSpUDt8mHvsh3Pg1AGc-6">
          <mxGeometry x="730" width="360" height="570" as="geometry" />
        </mxCell>
        <mxCell id="n6ZCLPPL8olRyC4bbD7v-9" value="&lt;b&gt;&lt;font style=&quot;font-size: 20px;&quot;&gt;Dashboard&lt;/font&gt;&lt;/b&gt;" style="rounded=0;whiteSpace=wrap;html=1;fillColor=none;" vertex="1" parent="n6ZCLPPL8olRyC4bbD7v-3">
          <mxGeometry x="80" y="199" width="210" height="111" as="geometry" />
        </mxCell>
        <mxCell id="n6ZCLPPL8olRyC4bbD7v-10" style="edgeStyle=orthogonalEdgeStyle;rounded=0;orthogonalLoop=1;jettySize=auto;html=1;exitX=0.5;exitY=0;exitDx=0;exitDy=0;exitPerimeter=0;entryX=0.5;entryY=0;entryDx=0;entryDy=0;" edge="1" parent="vLSpUDt8mHvsh3Pg1AGc-6" source="pdo2u72SIz1vdmRKJwuy-1" target="n6ZCLPPL8olRyC4bbD7v-9">
          <mxGeometry relative="1" as="geometry" />
        </mxCell>
        <mxCell id="n6ZCLPPL8olRyC4bbD7v-19" style="edgeStyle=orthogonalEdgeStyle;rounded=0;orthogonalLoop=1;jettySize=auto;html=1;exitX=0;exitY=0.3333333333333333;exitDx=0;exitDy=0;exitPerimeter=0;entryX=1;entryY=0;entryDx=0;entryDy=0;" edge="1" parent="vLSpUDt8mHvsh3Pg1AGc-6" source="n6ZCLPPL8olRyC4bbD7v-14" target="n6ZCLPPL8olRyC4bbD7v-9">
          <mxGeometry relative="1" as="geometry" />
        </mxCell>
        <mxCell id="n6ZCLPPL8olRyC4bbD7v-14" value="Actor" style="shape=umlActor;verticalLabelPosition=bottom;verticalAlign=top;html=1;outlineConnect=0;" vertex="1" parent="vLSpUDt8mHvsh3Pg1AGc-6">
          <mxGeometry x="1230" y="140" width="60" height="76" as="geometry" />
        </mxCell>
        <mxCell id="n6ZCLPPL8olRyC4bbD7v-20" style="edgeStyle=orthogonalEdgeStyle;rounded=0;orthogonalLoop=1;jettySize=auto;html=1;exitX=0;exitY=0.3333333333333333;exitDx=0;exitDy=0;exitPerimeter=0;entryX=1;entryY=0.5;entryDx=0;entryDy=0;" edge="1" parent="vLSpUDt8mHvsh3Pg1AGc-6" source="n6ZCLPPL8olRyC4bbD7v-17" target="n6ZCLPPL8olRyC4bbD7v-9">
          <mxGeometry relative="1" as="geometry" />
        </mxCell>
        <mxCell id="n6ZCLPPL8olRyC4bbD7v-17" value="Actor" style="shape=umlActor;verticalLabelPosition=bottom;verticalAlign=top;html=1;outlineConnect=0;" vertex="1" parent="vLSpUDt8mHvsh3Pg1AGc-6">
          <mxGeometry x="1230" y="266" width="60" height="76" as="geometry" />
        </mxCell>
        <mxCell id="n6ZCLPPL8olRyC4bbD7v-21" style="edgeStyle=orthogonalEdgeStyle;rounded=0;orthogonalLoop=1;jettySize=auto;html=1;exitX=0;exitY=0.3333333333333333;exitDx=0;exitDy=0;exitPerimeter=0;entryX=1;entryY=1;entryDx=0;entryDy=0;" edge="1" parent="vLSpUDt8mHvsh3Pg1AGc-6" source="n6ZCLPPL8olRyC4bbD7v-18" target="n6ZCLPPL8olRyC4bbD7v-9">
          <mxGeometry relative="1" as="geometry" />
        </mxCell>
        <mxCell id="n6ZCLPPL8olRyC4bbD7v-18" value="Actor" style="shape=umlActor;verticalLabelPosition=bottom;verticalAlign=top;html=1;outlineConnect=0;" vertex="1" parent="vLSpUDt8mHvsh3Pg1AGc-6">
          <mxGeometry x="1230" y="390" width="60" height="76" as="geometry" />
        </mxCell>
        <mxCell id="vLSpUDt8mHvsh3Pg1AGc-1" value="&lt;font style=&quot;font-size: 22px;&quot;&gt;&lt;b&gt;Purchasing analysts&lt;/b&gt;&lt;/font&gt;" style="text;whiteSpace=wrap;html=1;align=center;" vertex="1" parent="vLSpUDt8mHvsh3Pg1AGc-6">
          <mxGeometry x="1180" y="60" width="140" height="40" as="geometry" />
        </mxCell>
        <mxCell id="vLSpUDt8mHvsh3Pg1AGc-2" style="edgeStyle=orthogonalEdgeStyle;rounded=0;orthogonalLoop=1;jettySize=auto;html=1;exitX=1;exitY=0.5;exitDx=0;exitDy=0;entryX=0.5;entryY=1;entryDx=0;entryDy=0;" edge="1" parent="vLSpUDt8mHvsh3Pg1AGc-6" source="jXZQnSoI7P6sengV68fE-3" target="pdo2u72SIz1vdmRKJwuy-6">
          <mxGeometry relative="1" as="geometry" />
        </mxCell>
        <mxCell id="vLSpUDt8mHvsh3Pg1AGc-3" style="edgeStyle=orthogonalEdgeStyle;rounded=0;orthogonalLoop=1;jettySize=auto;html=1;exitX=1;exitY=0.5;exitDx=0;exitDy=0;entryX=0.5;entryY=1;entryDx=0;entryDy=0;" edge="1" parent="vLSpUDt8mHvsh3Pg1AGc-6" source="jXZQnSoI7P6sengV68fE-8" target="pdo2u72SIz1vdmRKJwuy-5">
          <mxGeometry relative="1" as="geometry">
            <Array as="points">
              <mxPoint x="180" y="369" />
              <mxPoint x="180" y="460" />
              <mxPoint x="315" y="460" />
              <mxPoint x="315" y="450" />
              <mxPoint x="530" y="450" />
            </Array>
          </mxGeometry>
        </mxCell>
        <mxCell id="vLSpUDt8mHvsh3Pg1AGc-4" style="edgeStyle=orthogonalEdgeStyle;rounded=0;orthogonalLoop=1;jettySize=auto;html=1;exitX=1;exitY=0.5;exitDx=0;exitDy=0;entryX=0.5;entryY=1;entryDx=0;entryDy=0;" edge="1" parent="vLSpUDt8mHvsh3Pg1AGc-6" source="jXZQnSoI7P6sengV68fE-5" target="pdo2u72SIz1vdmRKJwuy-4">
          <mxGeometry relative="1" as="geometry">
            <Array as="points">
              <mxPoint x="200" y="249" />
              <mxPoint x="200" y="470" />
              <mxPoint x="420" y="470" />
            </Array>
          </mxGeometry>
        </mxCell>
        <mxCell id="vLSpUDt8mHvsh3Pg1AGc-5" style="edgeStyle=orthogonalEdgeStyle;rounded=0;orthogonalLoop=1;jettySize=auto;html=1;exitX=1;exitY=0.5;exitDx=0;exitDy=0;entryX=0.5;entryY=1;entryDx=0;entryDy=0;" edge="1" parent="vLSpUDt8mHvsh3Pg1AGc-6" source="RiYpvtM7n1UF9Ozoq4zp-1" target="pdo2u72SIz1vdmRKJwuy-3">
          <mxGeometry relative="1" as="geometry">
            <Array as="points">
              <mxPoint x="240" y="129" />
              <mxPoint x="240" y="440" />
              <mxPoint x="310" y="440" />
            </Array>
          </mxGeometry>
        </mxCell>
      </root>
    </mxGraphModel>
  </diagram>
  <diagram id="qkK9EyInKD0wEX9Dc6e_" name="PÃ¡gina-3">
    <mxGraphModel dx="1793" dy="975" grid="1" gridSize="10" guides="1" tooltips="1" connect="1" arrows="1" fold="1" page="1" pageScale="1" pageWidth="1169" pageHeight="827" math="0" shadow="0">
      <root>
        <mxCell id="0" />
        <mxCell id="1" parent="0" />
        <mxCell id="SP61KPfB0uRUf9hQtivq-1" value="" style="rounded=0;whiteSpace=wrap;html=1;fillColor=none;" parent="1" vertex="1">
          <mxGeometry x="120" y="210" width="130" height="120" as="geometry" />
        </mxCell>
        <mxCell id="ix6h1SpzcZL8Num9ulgY-1" value="MÃ³dulo DB" style="rounded=0;whiteSpace=wrap;html=1;fillColor=none;" parent="1" vertex="1">
          <mxGeometry x="130" y="270" width="110" height="40" as="geometry" />
        </mxCell>
        <mxCell id="FPFgkzSY12a_f4aqM-Y5-1" value="&lt;b&gt;RPA - NFP&lt;/b&gt;" style="text;html=1;align=center;verticalAlign=middle;whiteSpace=wrap;rounded=0;" parent="1" vertex="1">
          <mxGeometry x="150" y="230" width="70" height="30" as="geometry" />
        </mxCell>
        <mxCell id="8_k4g0rHFzHp_4QvGQ-6-1" value="" style="rounded=0;whiteSpace=wrap;html=1;fillColor=none;" parent="1" vertex="1">
          <mxGeometry x="120" y="340" width="130" height="120" as="geometry" />
        </mxCell>
        <mxCell id="8_k4g0rHFzHp_4QvGQ-6-2" value="MÃ³dulo DB" style="rounded=0;whiteSpace=wrap;html=1;fillColor=none;" parent="1" vertex="1">
          <mxGeometry x="130" y="400" width="110" height="40" as="geometry" />
        </mxCell>
        <mxCell id="8_k4g0rHFzHp_4QvGQ-6-3" value="&lt;b&gt;RPA - BOM&lt;/b&gt;" style="text;html=1;align=center;verticalAlign=middle;whiteSpace=wrap;rounded=0;" parent="1" vertex="1">
          <mxGeometry x="150" y="360" width="70" height="30" as="geometry" />
        </mxCell>
        <mxCell id="q3u5q9F635_AeOgrljLF-1" value="" style="rounded=0;whiteSpace=wrap;html=1;fillColor=none;" parent="1" vertex="1">
          <mxGeometry x="120" y="470" width="130" height="120" as="geometry" />
        </mxCell>
        <mxCell id="q3u5q9F635_AeOgrljLF-2" value="MÃ³dulo DB" style="rounded=0;whiteSpace=wrap;html=1;fillColor=none;" parent="1" vertex="1">
          <mxGeometry x="130" y="530" width="110" height="40" as="geometry" />
        </mxCell>
        <mxCell id="q3u5q9F635_AeOgrljLF-3" value="&lt;b&gt;RPA - EDW&lt;/b&gt;" style="text;html=1;align=center;verticalAlign=middle;whiteSpace=wrap;rounded=0;" parent="1" vertex="1">
          <mxGeometry x="150" y="490" width="70" height="30" as="geometry" />
        </mxCell>
        <mxCell id="q3u5q9F635_AeOgrljLF-4" value="" style="rounded=0;whiteSpace=wrap;html=1;fillColor=none;" parent="1" vertex="1">
          <mxGeometry x="120" y="600" width="130" height="120" as="geometry" />
        </mxCell>
        <mxCell id="q3u5q9F635_AeOgrljLF-5" value="MÃ³dulo DB" style="rounded=0;whiteSpace=wrap;html=1;fillColor=none;" parent="1" vertex="1">
          <mxGeometry x="130" y="660" width="110" height="40" as="geometry" />
        </mxCell>
        <mxCell id="q3u5q9F635_AeOgrljLF-6" value="&lt;b&gt;RPA - Onhand&lt;/b&gt;" style="text;html=1;align=center;verticalAlign=middle;whiteSpace=wrap;rounded=0;" parent="1" vertex="1">
          <mxGeometry x="150" y="620" width="70" height="30" as="geometry" />
        </mxCell>
        <mxCell id="-VcdLzfqZ9IbSRLoxnw3-1" value="&lt;b&gt;&lt;font style=&quot;font-size: 14px;&quot;&gt;Banco de Dados MRP&lt;/font&gt;&lt;/b&gt;" style="shape=cylinder3;whiteSpace=wrap;html=1;boundedLbl=1;backgroundOutline=1;size=15;" parent="1" vertex="1">
          <mxGeometry x="510" y="380" width="120" height="160" as="geometry" />
        </mxCell>
        <mxCell id="CxuDAfMPnI2tFFYGZlzj-1" value="&lt;div style=&quot;box-sizing:border-box;width:100%;background:#e4e4e4;padding:2px;&quot;&gt;table_nfp&lt;/div&gt;&lt;table style=&quot;width:100%;font-size:1em;&quot; cellpadding=&quot;2&quot; cellspacing=&quot;0&quot;&gt;&lt;tbody&gt;&lt;tr&gt;&lt;td&gt;PK&lt;/td&gt;&lt;td&gt;uniqueId&lt;/td&gt;&lt;/tr&gt;&lt;tr&gt;&lt;td&gt;FK1&lt;/td&gt;&lt;td&gt;foreignKey&lt;/td&gt;&lt;/tr&gt;&lt;tr&gt;&lt;td&gt;&lt;/td&gt;&lt;td&gt;fieldname&lt;/td&gt;&lt;/tr&gt;&lt;/tbody&gt;&lt;/table&gt;" style="verticalAlign=top;align=left;overflow=fill;html=1;whiteSpace=wrap;" parent="1" vertex="1">
          <mxGeometry x="370" y="250" width="100" height="90" as="geometry" />
        </mxCell>
        <mxCell id="CxuDAfMPnI2tFFYGZlzj-2" value="&lt;div style=&quot;box-sizing:border-box;width:100%;background:#e4e4e4;padding:2px;&quot;&gt;table_bom&lt;/div&gt;&lt;table style=&quot;width:100%;font-size:1em;&quot; cellpadding=&quot;2&quot; cellspacing=&quot;0&quot;&gt;&lt;tbody&gt;&lt;tr&gt;&lt;td&gt;PK&lt;/td&gt;&lt;td&gt;uniqueId&lt;/td&gt;&lt;/tr&gt;&lt;tr&gt;&lt;td&gt;FK1&lt;/td&gt;&lt;td&gt;foreignKey&lt;/td&gt;&lt;/tr&gt;&lt;tr&gt;&lt;td&gt;&lt;/td&gt;&lt;td&gt;fieldname&lt;/td&gt;&lt;/tr&gt;&lt;/tbody&gt;&lt;/table&gt;" style="verticalAlign=top;align=left;overflow=fill;html=1;whiteSpace=wrap;" parent="1" vertex="1">
          <mxGeometry x="480" y="250" width="100" height="90" as="geometry" />
        </mxCell>
        <mxCell id="CxuDAfMPnI2tFFYGZlzj-3" value="&lt;div style=&quot;box-sizing:border-box;width:100%;background:#e4e4e4;padding:2px;&quot;&gt;table_edw&lt;/div&gt;&lt;table style=&quot;width:100%;font-size:1em;&quot; cellpadding=&quot;2&quot; cellspacing=&quot;0&quot;&gt;&lt;tbody&gt;&lt;tr&gt;&lt;td&gt;PK&lt;/td&gt;&lt;td&gt;uniqueId&lt;/td&gt;&lt;/tr&gt;&lt;tr&gt;&lt;td&gt;FK1&lt;/td&gt;&lt;td&gt;foreignKey&lt;/td&gt;&lt;/tr&gt;&lt;tr&gt;&lt;td&gt;&lt;/td&gt;&lt;td&gt;fieldname&lt;/td&gt;&lt;/tr&gt;&lt;/tbody&gt;&lt;/table&gt;" style="verticalAlign=top;align=left;overflow=fill;html=1;whiteSpace=wrap;" parent="1" vertex="1">
          <mxGeometry x="590" y="250" width="100" height="90" as="geometry" />
        </mxCell>
        <mxCell id="CxuDAfMPnI2tFFYGZlzj-4" value="&lt;div style=&quot;box-sizing:border-box;width:100%;background:#e4e4e4;padding:2px;&quot;&gt;table_onhand&lt;/div&gt;&lt;table style=&quot;width:100%;font-size:1em;&quot; cellpadding=&quot;2&quot; cellspacing=&quot;0&quot;&gt;&lt;tbody&gt;&lt;tr&gt;&lt;td&gt;PK&lt;/td&gt;&lt;td&gt;uniqueId&lt;/td&gt;&lt;/tr&gt;&lt;tr&gt;&lt;td&gt;FK1&lt;/td&gt;&lt;td&gt;foreignKey&lt;/td&gt;&lt;/tr&gt;&lt;tr&gt;&lt;td&gt;&lt;/td&gt;&lt;td&gt;fieldname&lt;/td&gt;&lt;/tr&gt;&lt;/tbody&gt;&lt;/table&gt;" style="verticalAlign=top;align=left;overflow=fill;html=1;whiteSpace=wrap;" parent="1" vertex="1">
          <mxGeometry x="700" y="250" width="100" height="90" as="geometry" />
        </mxCell>
        <mxCell id="CxuDAfMPnI2tFFYGZlzj-5" value="&lt;div style=&quot;box-sizing:border-box;width:100%;background:#e4e4e4;padding:2px;&quot;&gt;table_predictions&lt;/div&gt;&lt;table style=&quot;width:100%;font-size:1em;&quot; cellpadding=&quot;2&quot; cellspacing=&quot;0&quot;&gt;&lt;tbody&gt;&lt;tr&gt;&lt;td&gt;PK&lt;/td&gt;&lt;td&gt;uniqueId&lt;/td&gt;&lt;/tr&gt;&lt;tr&gt;&lt;td&gt;FK1&lt;/td&gt;&lt;td&gt;foreignKey&lt;/td&gt;&lt;/tr&gt;&lt;tr&gt;&lt;td&gt;&lt;/td&gt;&lt;td&gt;fieldname&lt;/td&gt;&lt;/tr&gt;&lt;/tbody&gt;&lt;/table&gt;" style="verticalAlign=top;align=left;overflow=fill;html=1;whiteSpace=wrap;" parent="1" vertex="1">
          <mxGeometry x="630" y="580" width="100" height="90" as="geometry" />
        </mxCell>
        <mxCell id="CxuDAfMPnI2tFFYGZlzj-6" value="&lt;div style=&quot;box-sizing:border-box;width:100%;background:#e4e4e4;padding:2px;&quot;&gt;table_summary master&lt;/div&gt;&lt;table style=&quot;width:100%;font-size:1em;&quot; cellpadding=&quot;2&quot; cellspacing=&quot;0&quot;&gt;&lt;tbody&gt;&lt;tr&gt;&lt;td&gt;PK&lt;/td&gt;&lt;td&gt;uniqueId&lt;/td&gt;&lt;/tr&gt;&lt;tr&gt;&lt;td&gt;FK1&lt;/td&gt;&lt;td&gt;foreignKey&lt;/td&gt;&lt;/tr&gt;&lt;tr&gt;&lt;td&gt;&lt;/td&gt;&lt;td&gt;fieldname&lt;/td&gt;&lt;/tr&gt;&lt;/tbody&gt;&lt;/table&gt;" style="verticalAlign=top;align=left;overflow=fill;html=1;whiteSpace=wrap;" parent="1" vertex="1">
          <mxGeometry x="520" y="580" width="100" height="90" as="geometry" />
        </mxCell>
        <mxCell id="CxuDAfMPnI2tFFYGZlzj-7" value="&lt;div style=&quot;box-sizing:border-box;width:100%;background:#e4e4e4;padding:2px;&quot;&gt;table_plan_assy&lt;/div&gt;&lt;table style=&quot;width:100%;font-size:1em;&quot; cellpadding=&quot;2&quot; cellspacing=&quot;0&quot;&gt;&lt;tbody&gt;&lt;tr&gt;&lt;td&gt;PK&lt;/td&gt;&lt;td&gt;uniqueId&lt;/td&gt;&lt;/tr&gt;&lt;tr&gt;&lt;td&gt;FK1&lt;/td&gt;&lt;td&gt;foreignKey&lt;/td&gt;&lt;/tr&gt;&lt;tr&gt;&lt;td&gt;&lt;/td&gt;&lt;td&gt;fieldname&lt;/td&gt;&lt;/tr&gt;&lt;/tbody&gt;&lt;/table&gt;" style="verticalAlign=top;align=left;overflow=fill;html=1;whiteSpace=wrap;" parent="1" vertex="1">
          <mxGeometry x="410" y="580" width="100" height="90" as="geometry" />
        </mxCell>
        <mxCell id="6lyCgRUunvkcTeOYCJcw-5" value="&lt;font style=&quot;font-size: 14px;&quot;&gt;Consumo de Dados e VisualizaÃ§Ã£o&lt;/font&gt;" style="swimlane;whiteSpace=wrap;html=1;startSize=40;" parent="1" vertex="1">
          <mxGeometry x="1170" y="160" width="300" height="580" as="geometry" />
        </mxCell>
        <mxCell id="CxuDAfMPnI2tFFYGZlzj-10" value="Dashboard" style="rounded=0;whiteSpace=wrap;html=1;fillColor=none;" parent="6lyCgRUunvkcTeOYCJcw-5" vertex="1">
          <mxGeometry x="20" y="200" width="120" height="60" as="geometry" />
        </mxCell>
        <mxCell id="CxuDAfMPnI2tFFYGZlzj-11" value="ChatBot" style="rounded=0;whiteSpace=wrap;html=1;fillColor=none;" parent="6lyCgRUunvkcTeOYCJcw-5" vertex="1">
          <mxGeometry x="160" y="200" width="120" height="60" as="geometry" />
        </mxCell>
        <mxCell id="6lyCgRUunvkcTeOYCJcw-6" value="ETL (ExtraÃ§Ã£o, TransformaÃ§Ã£o e Carga" style="swimlane;whiteSpace=wrap;html=1;startSize=40;" parent="1" vertex="1">
          <mxGeometry x="90" y="160" width="210" height="580" as="geometry" />
        </mxCell>
        <mxCell id="6lyCgRUunvkcTeOYCJcw-7" value="&lt;font style=&quot;font-size: 14px;&quot;&gt;Armazenamento - Banco de Dados&lt;/font&gt;" style="swimlane;whiteSpace=wrap;html=1;startSize=40;" parent="1" vertex="1">
          <mxGeometry x="300" y="160" width="570" height="580" as="geometry" />
        </mxCell>
        <mxCell id="6lyCgRUunvkcTeOYCJcw-8" value="&lt;font style=&quot;font-size: 14px;&quot;&gt;Algoritmo de PrediÃ§Ã£o&lt;/font&gt;" style="swimlane;whiteSpace=wrap;html=1;startSize=40;" parent="1" vertex="1">
          <mxGeometry x="870" y="160" width="300" height="580" as="geometry" />
        </mxCell>
        <mxCell id="6lyCgRUunvkcTeOYCJcw-9" value="&lt;b&gt;Processamento dos dados&lt;/b&gt;" style="rounded=0;whiteSpace=wrap;html=1;fillColor=none;fontSize=14;" parent="6lyCgRUunvkcTeOYCJcw-8" vertex="1">
          <mxGeometry x="60" y="212" width="180" height="70" as="geometry" />
        </mxCell>
        <mxCell id="6lyCgRUunvkcTeOYCJcw-10" value="&lt;b&gt;Modelo - PrevisÃ£o de ProduÃ§Ã£o&lt;/b&gt;" style="rounded=0;whiteSpace=wrap;html=1;fillColor=none;fontSize=14;" parent="6lyCgRUunvkcTeOYCJcw-8" vertex="1">
          <mxGeometry x="72.5" y="320" width="155" height="60" as="geometry" />
        </mxCell>
      </root>
    </mxGraphModel>
  </diagram>
  <diagram id="r5K9JtMh6ooGc4_4UvnA" name="PÃ¡gina-4">
    <mxGraphModel dx="1750" dy="870" grid="0" gridSize="10" guides="1" tooltips="1" connect="1" arrows="1" fold="1" page="0" pageScale="1" pageWidth="1169" pageHeight="827" math="0" shadow="0">
      <root>
        <mxCell id="0" />
        <mxCell id="1" parent="0" />
        <mxCell id="6Jb48EHadE141aqTxLpD-19" value="" style="group" vertex="1" connectable="0" parent="1">
          <mxGeometry x="-0.75" y="96" width="1711.5" height="760" as="geometry" />
        </mxCell>
        <mxCell id="JEepyOOpTHT72-kTgBQZ-2" value="" style="group" parent="6Jb48EHadE141aqTxLpD-19" vertex="1" connectable="0">
          <mxGeometry x="120.75" y="114" width="130" height="120" as="geometry" />
        </mxCell>
        <mxCell id="zc8uwpuFEo-r3rdFmn5g-1" value="" style="rounded=0;whiteSpace=wrap;html=1;fillColor=none;" parent="JEepyOOpTHT72-kTgBQZ-2" vertex="1">
          <mxGeometry width="130" height="120" as="geometry" />
        </mxCell>
        <mxCell id="zc8uwpuFEo-r3rdFmn5g-2" value="MÃ³dulo DB" style="rounded=0;whiteSpace=wrap;html=1;fillColor=none;" parent="JEepyOOpTHT72-kTgBQZ-2" vertex="1">
          <mxGeometry x="10" y="60" width="110" height="40" as="geometry" />
        </mxCell>
        <mxCell id="JEepyOOpTHT72-kTgBQZ-1" value="&lt;b&gt;RPA - NFP&lt;/b&gt;" style="text;html=1;align=center;verticalAlign=middle;whiteSpace=wrap;rounded=0;" parent="JEepyOOpTHT72-kTgBQZ-2" vertex="1">
          <mxGeometry x="30" y="20" width="70" height="30" as="geometry" />
        </mxCell>
        <mxCell id="JEepyOOpTHT72-kTgBQZ-3" value="" style="group" parent="6Jb48EHadE141aqTxLpD-19" vertex="1" connectable="0">
          <mxGeometry x="120.75" y="244" width="130" height="120" as="geometry" />
        </mxCell>
        <mxCell id="zc8uwpuFEo-r3rdFmn5g-3" value="" style="rounded=0;whiteSpace=wrap;html=1;fillColor=none;" parent="JEepyOOpTHT72-kTgBQZ-3" vertex="1">
          <mxGeometry width="130" height="120" as="geometry" />
        </mxCell>
        <mxCell id="zc8uwpuFEo-r3rdFmn5g-4" value="MÃ³dulo DB" style="rounded=0;whiteSpace=wrap;html=1;fillColor=none;" parent="JEepyOOpTHT72-kTgBQZ-3" vertex="1">
          <mxGeometry x="10" y="60" width="110" height="40" as="geometry" />
        </mxCell>
        <mxCell id="zc8uwpuFEo-r3rdFmn5g-5" value="&lt;b&gt;RPA - BOM&lt;/b&gt;" style="text;html=1;align=center;verticalAlign=middle;whiteSpace=wrap;rounded=0;" parent="JEepyOOpTHT72-kTgBQZ-3" vertex="1">
          <mxGeometry x="30" y="20" width="70" height="30" as="geometry" />
        </mxCell>
        <mxCell id="JEepyOOpTHT72-kTgBQZ-4" value="" style="group" parent="6Jb48EHadE141aqTxLpD-19" vertex="1" connectable="0">
          <mxGeometry x="260.75" y="244" width="130" height="120" as="geometry" />
        </mxCell>
        <mxCell id="zc8uwpuFEo-r3rdFmn5g-6" value="" style="rounded=0;whiteSpace=wrap;html=1;fillColor=none;" parent="JEepyOOpTHT72-kTgBQZ-4" vertex="1">
          <mxGeometry width="130" height="120" as="geometry" />
        </mxCell>
        <mxCell id="zc8uwpuFEo-r3rdFmn5g-7" value="MÃ³dulo DB" style="rounded=0;whiteSpace=wrap;html=1;fillColor=none;" parent="JEepyOOpTHT72-kTgBQZ-4" vertex="1">
          <mxGeometry x="10" y="60" width="110" height="40" as="geometry" />
        </mxCell>
        <mxCell id="zc8uwpuFEo-r3rdFmn5g-8" value="&lt;b&gt;RPA - EDW&lt;/b&gt;" style="text;html=1;align=center;verticalAlign=middle;whiteSpace=wrap;rounded=0;" parent="JEepyOOpTHT72-kTgBQZ-4" vertex="1">
          <mxGeometry x="30" y="20" width="70" height="30" as="geometry" />
        </mxCell>
        <mxCell id="JEepyOOpTHT72-kTgBQZ-5" value="" style="group" parent="6Jb48EHadE141aqTxLpD-19" vertex="1" connectable="0">
          <mxGeometry x="260.75" y="114" width="130" height="120" as="geometry" />
        </mxCell>
        <mxCell id="zc8uwpuFEo-r3rdFmn5g-9" value="MÃ³dulo DB" style="rounded=0;whiteSpace=wrap;html=1;fillColor=none;" parent="JEepyOOpTHT72-kTgBQZ-5" vertex="1">
          <mxGeometry x="10" y="60" width="110" height="40" as="geometry" />
        </mxCell>
        <mxCell id="zc8uwpuFEo-r3rdFmn5g-10" value="&lt;b&gt;RPA - Onhand&lt;/b&gt;" style="text;html=1;align=center;verticalAlign=middle;whiteSpace=wrap;rounded=0;" parent="JEepyOOpTHT72-kTgBQZ-5" vertex="1">
          <mxGeometry x="30" y="20" width="70" height="30" as="geometry" />
        </mxCell>
        <mxCell id="HvMSylvYOH2YE8Mle_iP-1" value="" style="rounded=0;whiteSpace=wrap;html=1;fillColor=none;" parent="JEepyOOpTHT72-kTgBQZ-5" vertex="1">
          <mxGeometry width="130" height="120" as="geometry" />
        </mxCell>
        <mxCell id="JEepyOOpTHT72-kTgBQZ-6" value="" style="endArrow=classic;html=1;rounded=0;dashed=1;dashPattern=12 12;strokeColor=#FF0000;flowAnimation=1;strokeWidth=2;" parent="6Jb48EHadE141aqTxLpD-19" edge="1">
          <mxGeometry width="50" height="50" relative="1" as="geometry">
            <mxPoint x="80.75" y="404" as="sourcePoint" />
            <mxPoint x="80.75" y="494" as="targetPoint" />
            <Array as="points">
              <mxPoint x="460.75" y="404" />
              <mxPoint x="460.75" y="64" />
              <mxPoint x="920.75" y="64" />
              <mxPoint x="920.75" y="404" />
              <mxPoint x="1620.75" y="404" />
              <mxPoint x="1620.75" y="704" />
              <mxPoint x="80.75" y="714" />
            </Array>
          </mxGeometry>
        </mxCell>
        <mxCell id="K3G8Of9VNVQ37nLClOnc-1" value="&lt;b&gt;&lt;font style=&quot;font-size: 14px;&quot;&gt;Banco de Dados MRP&lt;/font&gt;&lt;/b&gt;" style="shape=cylinder3;whiteSpace=wrap;html=1;boundedLbl=1;backgroundOutline=1;size=15;" parent="6Jb48EHadE141aqTxLpD-19" vertex="1">
          <mxGeometry x="650.75" y="184" width="80" height="106" as="geometry" />
        </mxCell>
        <mxCell id="K3G8Of9VNVQ37nLClOnc-2" value="&lt;div style=&quot;box-sizing:border-box;width:100%;background:#e4e4e4;padding:2px;&quot;&gt;table_nfp&lt;/div&gt;&lt;table style=&quot;width:100%;font-size:1em;&quot; cellpadding=&quot;2&quot; cellspacing=&quot;0&quot;&gt;&lt;tbody&gt;&lt;tr&gt;&lt;td&gt;PK&lt;/td&gt;&lt;td&gt;uniqueId&lt;/td&gt;&lt;/tr&gt;&lt;tr&gt;&lt;td&gt;FK1&lt;/td&gt;&lt;td&gt;foreignKey&lt;/td&gt;&lt;/tr&gt;&lt;tr&gt;&lt;td&gt;&lt;/td&gt;&lt;td&gt;fieldname&lt;/td&gt;&lt;/tr&gt;&lt;/tbody&gt;&lt;/table&gt;" style="verticalAlign=top;align=left;overflow=fill;html=1;whiteSpace=wrap;" parent="6Jb48EHadE141aqTxLpD-19" vertex="1">
          <mxGeometry x="475.75" y="74" width="100" height="90" as="geometry" />
        </mxCell>
        <mxCell id="K3G8Of9VNVQ37nLClOnc-3" value="&lt;div style=&quot;box-sizing:border-box;width:100%;background:#e4e4e4;padding:2px;&quot;&gt;table_bom&lt;/div&gt;&lt;table style=&quot;width:100%;font-size:1em;&quot; cellpadding=&quot;2&quot; cellspacing=&quot;0&quot;&gt;&lt;tbody&gt;&lt;tr&gt;&lt;td&gt;PK&lt;/td&gt;&lt;td&gt;uniqueId&lt;/td&gt;&lt;/tr&gt;&lt;tr&gt;&lt;td&gt;FK1&lt;/td&gt;&lt;td&gt;foreignKey&lt;/td&gt;&lt;/tr&gt;&lt;tr&gt;&lt;td&gt;&lt;/td&gt;&lt;td&gt;fieldname&lt;/td&gt;&lt;/tr&gt;&lt;/tbody&gt;&lt;/table&gt;" style="verticalAlign=top;align=left;overflow=fill;html=1;whiteSpace=wrap;" parent="6Jb48EHadE141aqTxLpD-19" vertex="1">
          <mxGeometry x="585.75" y="74" width="100" height="90" as="geometry" />
        </mxCell>
        <mxCell id="K3G8Of9VNVQ37nLClOnc-4" value="&lt;div style=&quot;box-sizing:border-box;width:100%;background:#e4e4e4;padding:2px;&quot;&gt;table_edw&lt;/div&gt;&lt;table style=&quot;width:100%;font-size:1em;&quot; cellpadding=&quot;2&quot; cellspacing=&quot;0&quot;&gt;&lt;tbody&gt;&lt;tr&gt;&lt;td&gt;PK&lt;/td&gt;&lt;td&gt;uniqueId&lt;/td&gt;&lt;/tr&gt;&lt;tr&gt;&lt;td&gt;FK1&lt;/td&gt;&lt;td&gt;foreignKey&lt;/td&gt;&lt;/tr&gt;&lt;tr&gt;&lt;td&gt;&lt;/td&gt;&lt;td&gt;fieldname&lt;/td&gt;&lt;/tr&gt;&lt;/tbody&gt;&lt;/table&gt;" style="verticalAlign=top;align=left;overflow=fill;html=1;whiteSpace=wrap;" parent="6Jb48EHadE141aqTxLpD-19" vertex="1">
          <mxGeometry x="695.75" y="74" width="100" height="90" as="geometry" />
        </mxCell>
        <mxCell id="K3G8Of9VNVQ37nLClOnc-5" value="&lt;div style=&quot;box-sizing:border-box;width:100%;background:#e4e4e4;padding:2px;&quot;&gt;table_onhand&lt;/div&gt;&lt;table style=&quot;width:100%;font-size:1em;&quot; cellpadding=&quot;2&quot; cellspacing=&quot;0&quot;&gt;&lt;tbody&gt;&lt;tr&gt;&lt;td&gt;PK&lt;/td&gt;&lt;td&gt;uniqueId&lt;/td&gt;&lt;/tr&gt;&lt;tr&gt;&lt;td&gt;FK1&lt;/td&gt;&lt;td&gt;foreignKey&lt;/td&gt;&lt;/tr&gt;&lt;tr&gt;&lt;td&gt;&lt;/td&gt;&lt;td&gt;fieldname&lt;/td&gt;&lt;/tr&gt;&lt;/tbody&gt;&lt;/table&gt;" style="verticalAlign=top;align=left;overflow=fill;html=1;whiteSpace=wrap;" parent="6Jb48EHadE141aqTxLpD-19" vertex="1">
          <mxGeometry x="805.75" y="74" width="100" height="90" as="geometry" />
        </mxCell>
        <mxCell id="K3G8Of9VNVQ37nLClOnc-6" value="&lt;div style=&quot;box-sizing:border-box;width:100%;background:#e4e4e4;padding:2px;&quot;&gt;table_predictions&lt;/div&gt;&lt;table style=&quot;width:100%;font-size:1em;&quot; cellpadding=&quot;2&quot; cellspacing=&quot;0&quot;&gt;&lt;tbody&gt;&lt;tr&gt;&lt;td&gt;PK&lt;/td&gt;&lt;td&gt;uniqueId&lt;/td&gt;&lt;/tr&gt;&lt;tr&gt;&lt;td&gt;FK1&lt;/td&gt;&lt;td&gt;foreignKey&lt;/td&gt;&lt;/tr&gt;&lt;tr&gt;&lt;td&gt;&lt;/td&gt;&lt;td&gt;fieldname&lt;/td&gt;&lt;/tr&gt;&lt;/tbody&gt;&lt;/table&gt;" style="verticalAlign=top;align=left;overflow=fill;html=1;whiteSpace=wrap;" parent="6Jb48EHadE141aqTxLpD-19" vertex="1">
          <mxGeometry x="750.75" y="304" width="100" height="90" as="geometry" />
        </mxCell>
        <mxCell id="K3G8Of9VNVQ37nLClOnc-7" value="&lt;div style=&quot;box-sizing:border-box;width:100%;background:#e4e4e4;padding:2px;&quot;&gt;table_summary master&lt;/div&gt;&lt;table style=&quot;width:100%;font-size:1em;&quot; cellpadding=&quot;2&quot; cellspacing=&quot;0&quot;&gt;&lt;tbody&gt;&lt;tr&gt;&lt;td&gt;PK&lt;/td&gt;&lt;td&gt;uniqueId&lt;/td&gt;&lt;/tr&gt;&lt;tr&gt;&lt;td&gt;FK1&lt;/td&gt;&lt;td&gt;foreignKey&lt;/td&gt;&lt;/tr&gt;&lt;tr&gt;&lt;td&gt;&lt;/td&gt;&lt;td&gt;fieldname&lt;/td&gt;&lt;/tr&gt;&lt;/tbody&gt;&lt;/table&gt;" style="verticalAlign=top;align=left;overflow=fill;html=1;whiteSpace=wrap;" parent="6Jb48EHadE141aqTxLpD-19" vertex="1">
          <mxGeometry x="640.75" y="304" width="100" height="90" as="geometry" />
        </mxCell>
        <mxCell id="K3G8Of9VNVQ37nLClOnc-8" value="&lt;div style=&quot;box-sizing:border-box;width:100%;background:#e4e4e4;padding:2px;&quot;&gt;table_plan_assy&lt;/div&gt;&lt;table style=&quot;width:100%;font-size:1em;&quot; cellpadding=&quot;2&quot; cellspacing=&quot;0&quot;&gt;&lt;tbody&gt;&lt;tr&gt;&lt;td&gt;PK&lt;/td&gt;&lt;td&gt;uniqueId&lt;/td&gt;&lt;/tr&gt;&lt;tr&gt;&lt;td&gt;FK1&lt;/td&gt;&lt;td&gt;foreignKey&lt;/td&gt;&lt;/tr&gt;&lt;tr&gt;&lt;td&gt;&lt;/td&gt;&lt;td&gt;fieldname&lt;/td&gt;&lt;/tr&gt;&lt;/tbody&gt;&lt;/table&gt;" style="verticalAlign=top;align=left;overflow=fill;html=1;whiteSpace=wrap;" parent="6Jb48EHadE141aqTxLpD-19" vertex="1">
          <mxGeometry x="530.75" y="304" width="100" height="90" as="geometry" />
        </mxCell>
        <mxCell id="K3G8Of9VNVQ37nLClOnc-9" value="ETL (ExtraÃ§Ã£o, TransformaÃ§Ã£o e Carga)" style="text;html=1;align=center;verticalAlign=middle;whiteSpace=wrap;rounded=0;fontStyle=1;fontSize=16;fontColor=#FF0000;" parent="6Jb48EHadE141aqTxLpD-19" vertex="1">
          <mxGeometry x="160.75" y="54" width="200" height="30" as="geometry" />
        </mxCell>
        <mxCell id="bryWoQuBbxaHHUlaAsmy-1" value="Date Lake" style="text;html=1;align=center;verticalAlign=middle;whiteSpace=wrap;rounded=0;fontStyle=1;fontSize=20;fontColor=#FF0000;" parent="6Jb48EHadE141aqTxLpD-19" vertex="1">
          <mxGeometry x="590.75" y="14" width="200" height="30" as="geometry" />
        </mxCell>
        <mxCell id="bryWoQuBbxaHHUlaAsmy-5" value="IA/ML&amp;nbsp;&lt;div&gt;Analytics&lt;/div&gt;" style="text;html=1;align=center;verticalAlign=middle;whiteSpace=wrap;rounded=0;fontStyle=1;fontSize=20;fontColor=#FF0000;" parent="6Jb48EHadE141aqTxLpD-19" vertex="1">
          <mxGeometry x="1169.75" y="634" width="200" height="60" as="geometry" />
        </mxCell>
        <mxCell id="AJKCmLxxlTXqBpqUNrlj-1" value="Os dados processados sÃ£o enviados para tabelas especÃ­ficas no banco de dados." style="text;html=1;align=left;verticalAlign=middle;whiteSpace=wrap;rounded=0;fontSize=15;" vertex="1" parent="6Jb48EHadE141aqTxLpD-19">
          <mxGeometry x="140.75" y="414" width="320" height="40" as="geometry" />
        </mxCell>
        <mxCell id="AJKCmLxxlTXqBpqUNrlj-3" value="Digital Ops" style="text;html=1;align=center;verticalAlign=middle;whiteSpace=wrap;rounded=0;fontSize=20;fontStyle=1;fontColor=#FF0000;" vertex="1" parent="6Jb48EHadE141aqTxLpD-19">
          <mxGeometry x="1190.75" y="4" width="120" height="40" as="geometry" />
        </mxCell>
        <mxCell id="_Rs8naj9L9-uHhhaZjmJ-14" style="edgeStyle=orthogonalEdgeStyle;rounded=0;orthogonalLoop=1;jettySize=auto;html=1;entryX=0.5;entryY=0;entryDx=0;entryDy=0;flowAnimation=1;" edge="1" parent="6Jb48EHadE141aqTxLpD-19" source="AJKCmLxxlTXqBpqUNrlj-6" target="AJKCmLxxlTXqBpqUNrlj-7">
          <mxGeometry relative="1" as="geometry" />
        </mxCell>
        <mxCell id="AJKCmLxxlTXqBpqUNrlj-6" value="OrquestraÃ§Ã£o de Processos" style="rounded=1;whiteSpace=wrap;html=1;fillColor=#dae8fc;strokeColor=#6c8ebf;" vertex="1" parent="6Jb48EHadE141aqTxLpD-19">
          <mxGeometry x="1002.75" y="114" width="120" height="60" as="geometry" />
        </mxCell>
        <mxCell id="_Rs8naj9L9-uHhhaZjmJ-16" style="edgeStyle=orthogonalEdgeStyle;rounded=0;orthogonalLoop=1;jettySize=auto;html=1;entryX=0;entryY=0.5;entryDx=0;entryDy=0;flowAnimation=1;" edge="1" parent="6Jb48EHadE141aqTxLpD-19" source="AJKCmLxxlTXqBpqUNrlj-7" target="AJKCmLxxlTXqBpqUNrlj-8">
          <mxGeometry relative="1" as="geometry" />
        </mxCell>
        <mxCell id="AJKCmLxxlTXqBpqUNrlj-7" value="Monitoramento&amp;nbsp;&lt;div&gt;de Logs&lt;/div&gt;" style="rhombus;whiteSpace=wrap;html=1;fillColor=#fff2cc;strokeColor=#d6b656;" vertex="1" parent="6Jb48EHadE141aqTxLpD-19">
          <mxGeometry x="982.75" y="274" width="130" height="110" as="geometry" />
        </mxCell>
        <mxCell id="AJKCmLxxlTXqBpqUNrlj-8" value="AutomaÃ§Ã£o Inteligente" style="shape=hexagon;perimeter=hexagonPerimeter2;whiteSpace=wrap;html=1;fixedSize=1;fillColor=#d5e8d4;strokeColor=#82b366;" vertex="1" parent="6Jb48EHadE141aqTxLpD-19">
          <mxGeometry x="1132.75" y="194" width="120" height="80" as="geometry" />
        </mxCell>
        <mxCell id="_Rs8naj9L9-uHhhaZjmJ-26" style="edgeStyle=orthogonalEdgeStyle;rounded=0;orthogonalLoop=1;jettySize=auto;html=1;exitX=0.5;exitY=0;exitDx=0;exitDy=0;entryX=0.5;entryY=0;entryDx=0;entryDy=0;flowAnimation=1;" edge="1" parent="6Jb48EHadE141aqTxLpD-19" source="AJKCmLxxlTXqBpqUNrlj-9" target="AJKCmLxxlTXqBpqUNrlj-6">
          <mxGeometry relative="1" as="geometry" />
        </mxCell>
        <mxCell id="_Rs8naj9L9-uHhhaZjmJ-29" style="edgeStyle=orthogonalEdgeStyle;rounded=0;orthogonalLoop=1;jettySize=auto;html=1;exitX=1;exitY=0.5;exitDx=0;exitDy=0;dashed=1;flowAnimation=1;" edge="1" parent="6Jb48EHadE141aqTxLpD-19" source="AJKCmLxxlTXqBpqUNrlj-9" target="_Rs8naj9L9-uHhhaZjmJ-3">
          <mxGeometry relative="1" as="geometry" />
        </mxCell>
        <mxCell id="AJKCmLxxlTXqBpqUNrlj-9" value="GovernanÃ§a e Insights" style="shape=parallelogram;perimeter=parallelogramPerimeter;whiteSpace=wrap;html=1;fixedSize=1;fillColor=#e1d5e7;strokeColor=#9673a6;" vertex="1" parent="6Jb48EHadE141aqTxLpD-19">
          <mxGeometry x="1353.75" y="114.00000000000003" width="120" height="60" as="geometry" />
        </mxCell>
        <mxCell id="_Rs8naj9L9-uHhhaZjmJ-1" value="" style="points=[[0.35,0,0],[0.98,0.51,0],[1,0.71,0],[0.67,1,0],[0,0.795,0],[0,0.65,0]];verticalLabelPosition=bottom;sketch=0;html=1;verticalAlign=top;aspect=fixed;align=center;pointerEvents=1;shape=mxgraph.cisco19.user;fillColor=#005073;strokeColor=none;" vertex="1" parent="6Jb48EHadE141aqTxLpD-19">
          <mxGeometry x="1422.75" y="304" width="80" height="80" as="geometry" />
        </mxCell>
        <mxCell id="_Rs8naj9L9-uHhhaZjmJ-31" style="edgeStyle=orthogonalEdgeStyle;rounded=0;orthogonalLoop=1;jettySize=auto;html=1;flowAnimation=1;" edge="1" parent="6Jb48EHadE141aqTxLpD-19" source="_Rs8naj9L9-uHhhaZjmJ-3" target="_Rs8naj9L9-uHhhaZjmJ-1">
          <mxGeometry relative="1" as="geometry" />
        </mxCell>
        <mxCell id="_Rs8naj9L9-uHhhaZjmJ-3" value="" style="sketch=0;pointerEvents=1;shadow=0;dashed=0;html=1;strokeColor=none;fillColor=#005F4B;labelPosition=center;verticalLabelPosition=bottom;verticalAlign=top;align=center;outlineConnect=0;shape=mxgraph.veeam2.report;" vertex="1" parent="6Jb48EHadE141aqTxLpD-19">
          <mxGeometry x="1502.75" y="214" width="48" height="60" as="geometry" />
        </mxCell>
        <mxCell id="_Rs8naj9L9-uHhhaZjmJ-5" value="Gera relatÃ³rios" style="text;html=1;align=center;verticalAlign=middle;whiteSpace=wrap;rounded=0;fontSize=15;" vertex="1" parent="6Jb48EHadE141aqTxLpD-19">
          <mxGeometry x="1520.75" y="144" width="91" height="40" as="geometry" />
        </mxCell>
        <mxCell id="_Rs8naj9L9-uHhhaZjmJ-7" value="" style="sketch=0;pointerEvents=1;shadow=0;dashed=0;html=1;strokeColor=none;fillColor=#FF0000;labelPosition=center;verticalLabelPosition=bottom;verticalAlign=top;align=center;outlineConnect=0;shape=mxgraph.veeam2.report;" vertex="1" parent="6Jb48EHadE141aqTxLpD-19">
          <mxGeometry x="1332.75" y="324" width="48" height="60" as="geometry" />
        </mxCell>
        <mxCell id="_Rs8naj9L9-uHhhaZjmJ-10" value="Alerta/RelatÃ³rios sobre falhas ou progresso" style="text;html=1;align=center;verticalAlign=middle;whiteSpace=wrap;rounded=0;fontSize=15;" vertex="1" parent="6Jb48EHadE141aqTxLpD-19">
          <mxGeometry x="1082.75" y="360" width="240" height="40" as="geometry" />
        </mxCell>
        <mxCell id="_Rs8naj9L9-uHhhaZjmJ-12" value="" style="verticalLabelPosition=bottom;html=1;verticalAlign=top;align=center;strokeColor=none;fillColor=#FFFF00;shape=mxgraph.azure.azure_alert;" vertex="1" parent="6Jb48EHadE141aqTxLpD-19">
          <mxGeometry x="1341.75" y="337.75" width="30" height="32.5" as="geometry" />
        </mxCell>
        <mxCell id="_Rs8naj9L9-uHhhaZjmJ-15" value="Gera dados para monitoramento" style="text;html=1;align=center;verticalAlign=middle;whiteSpace=wrap;rounded=0;fontSize=15;" vertex="1" parent="6Jb48EHadE141aqTxLpD-19">
          <mxGeometry x="942.75" y="204" width="91" height="40" as="geometry" />
        </mxCell>
        <mxCell id="_Rs8naj9L9-uHhhaZjmJ-17" value="CondiÃ§Ãµes Identificadas" style="text;html=1;align=center;verticalAlign=middle;whiteSpace=wrap;rounded=0;fontSize=15;" vertex="1" parent="6Jb48EHadE141aqTxLpD-19">
          <mxGeometry x="1142.75" y="284" width="91" height="40" as="geometry" />
        </mxCell>
        <mxCell id="_Rs8naj9L9-uHhhaZjmJ-20" value="" style="verticalLabelPosition=bottom;html=1;verticalAlign=top;strokeWidth=2;shape=mxgraph.lean_mapping.physical_pull;pointerEvents=1;rotation=-180;dashed=1;fillColor=none;" vertex="1" parent="6Jb48EHadE141aqTxLpD-19">
          <mxGeometry x="1104.75" y="129" width="88" height="80" as="geometry" />
        </mxCell>
        <mxCell id="_Rs8naj9L9-uHhhaZjmJ-21" value="Ciclo ContÃ­nuo" style="text;html=1;align=center;verticalAlign=middle;whiteSpace=wrap;rounded=0;fontSize=15;" vertex="1" parent="6Jb48EHadE141aqTxLpD-19">
          <mxGeometry x="1102.75" y="154" width="91" height="40" as="geometry" />
        </mxCell>
        <mxCell id="_Rs8naj9L9-uHhhaZjmJ-27" value="Novas regras aplicadas" style="text;html=1;align=center;verticalAlign=middle;whiteSpace=wrap;rounded=0;fontSize=15;fontStyle=1" vertex="1" parent="6Jb48EHadE141aqTxLpD-19">
          <mxGeometry x="1162.75" y="64" width="190" height="30" as="geometry" />
        </mxCell>
        <mxCell id="_Rs8naj9L9-uHhhaZjmJ-37" style="edgeStyle=orthogonalEdgeStyle;rounded=0;orthogonalLoop=1;jettySize=auto;html=1;exitX=1;exitY=1;exitDx=0;exitDy=0;entryX=-0.008;entryY=0.553;entryDx=0;entryDy=0;entryPerimeter=0;dashed=1;flowAnimation=1;" edge="1" parent="6Jb48EHadE141aqTxLpD-19" source="AJKCmLxxlTXqBpqUNrlj-7" target="_Rs8naj9L9-uHhhaZjmJ-7">
          <mxGeometry relative="1" as="geometry" />
        </mxCell>
        <mxCell id="_Rs8naj9L9-uHhhaZjmJ-38" style="edgeStyle=orthogonalEdgeStyle;rounded=0;orthogonalLoop=1;jettySize=auto;html=1;entryX=0;entryY=0.65;entryDx=0;entryDy=0;entryPerimeter=0;flowAnimation=1;" edge="1" parent="6Jb48EHadE141aqTxLpD-19" source="_Rs8naj9L9-uHhhaZjmJ-7" target="_Rs8naj9L9-uHhhaZjmJ-1">
          <mxGeometry relative="1" as="geometry" />
        </mxCell>
        <mxCell id="_Rs8naj9L9-uHhhaZjmJ-41" style="edgeStyle=orthogonalEdgeStyle;rounded=0;orthogonalLoop=1;jettySize=auto;html=1;entryX=0.5;entryY=0;entryDx=0;entryDy=0;flowAnimation=1;" edge="1" parent="6Jb48EHadE141aqTxLpD-19" source="_Rs8naj9L9-uHhhaZjmJ-39" target="_Rs8naj9L9-uHhhaZjmJ-40">
          <mxGeometry relative="1" as="geometry" />
        </mxCell>
        <mxCell id="_Rs8naj9L9-uHhhaZjmJ-39" value="Processamento&amp;nbsp;&lt;div&gt;de Dados&lt;/div&gt;" style="shape=parallelogram;perimeter=parallelogramPerimeter;whiteSpace=wrap;html=1;fixedSize=1;fillColor=none;" vertex="1" parent="6Jb48EHadE141aqTxLpD-19">
          <mxGeometry x="964.25" y="444" width="167" height="70" as="geometry" />
        </mxCell>
        <mxCell id="_Rs8naj9L9-uHhhaZjmJ-43" style="edgeStyle=orthogonalEdgeStyle;rounded=0;orthogonalLoop=1;jettySize=auto;html=1;exitX=1;exitY=0.5;exitDx=0;exitDy=0;entryX=0;entryY=0.5;entryDx=0;entryDy=0;flowAnimation=1;" edge="1" parent="6Jb48EHadE141aqTxLpD-19" source="_Rs8naj9L9-uHhhaZjmJ-40" target="_Rs8naj9L9-uHhhaZjmJ-42">
          <mxGeometry relative="1" as="geometry" />
        </mxCell>
        <mxCell id="_Rs8naj9L9-uHhhaZjmJ-40" value="RegressÃ£o + SÃ©ries temporais" style="rounded=1;whiteSpace=wrap;html=1;fillColor=none;" vertex="1" parent="6Jb48EHadE141aqTxLpD-19">
          <mxGeometry x="984.25" y="564" width="110" height="30" as="geometry" />
        </mxCell>
        <mxCell id="_Rs8naj9L9-uHhhaZjmJ-45" style="edgeStyle=orthogonalEdgeStyle;rounded=0;orthogonalLoop=1;jettySize=auto;html=1;exitX=1;exitY=0.5;exitDx=0;exitDy=0;entryX=0;entryY=0.5;entryDx=0;entryDy=0;flowAnimation=1;" edge="1" parent="6Jb48EHadE141aqTxLpD-19" source="_Rs8naj9L9-uHhhaZjmJ-42" target="_Rs8naj9L9-uHhhaZjmJ-44">
          <mxGeometry relative="1" as="geometry" />
        </mxCell>
        <mxCell id="_Rs8naj9L9-uHhhaZjmJ-42" value="Insights Gerados" style="ellipse;whiteSpace=wrap;html=1;aspect=fixed;fillColor=none;" vertex="1" parent="6Jb48EHadE141aqTxLpD-19">
          <mxGeometry x="1210.75" y="494" width="80" height="80" as="geometry" />
        </mxCell>
        <mxCell id="6Jb48EHadE141aqTxLpD-2" style="edgeStyle=orthogonalEdgeStyle;rounded=0;orthogonalLoop=1;jettySize=auto;html=1;exitX=0.5;exitY=1;exitDx=0;exitDy=0;flowAnimation=1;" edge="1" parent="6Jb48EHadE141aqTxLpD-19" source="_Rs8naj9L9-uHhhaZjmJ-44" target="6Jb48EHadE141aqTxLpD-1">
          <mxGeometry relative="1" as="geometry" />
        </mxCell>
        <mxCell id="_Rs8naj9L9-uHhhaZjmJ-44" value="SaÃ­da&amp;nbsp;&lt;div&gt;de Dados&lt;/div&gt;" style="shape=parallelogram;perimeter=parallelogramPerimeter;whiteSpace=wrap;html=1;fixedSize=1;fillColor=none;" vertex="1" parent="6Jb48EHadE141aqTxLpD-19">
          <mxGeometry x="1353.75" y="514" width="100" height="40" as="geometry" />
        </mxCell>
        <mxCell id="6Jb48EHadE141aqTxLpD-1" value="" style="sketch=0;pointerEvents=1;shadow=0;dashed=0;html=1;strokeColor=none;fillColor=#434445;aspect=fixed;labelPosition=center;verticalLabelPosition=bottom;verticalAlign=top;align=center;outlineConnect=0;shape=mxgraph.vvd.nsx_dashboard;" vertex="1" parent="6Jb48EHadE141aqTxLpD-19">
          <mxGeometry x="1490.75" y="544" width="107.53" height="100" as="geometry" />
        </mxCell>
        <mxCell id="6Jb48EHadE141aqTxLpD-10" value="" style="shape=mxgraph.arrows.circular_arrow;html=1;verticalLabelPosition=bottom;verticalAlign=top;strokeWidth=2;strokeColor=#000000;rotation=-105;" vertex="1" parent="6Jb48EHadE141aqTxLpD-19">
          <mxGeometry x="0.75" y="414" width="97" height="69" as="geometry" />
        </mxCell>
      </root>
    </mxGraphModel>
  </diagram>
  <diagram name="CÃ³pia do PÃ¡gina-4" id="nkGH2-jWlaZ9icX1CZhv">
    <mxGraphModel dx="2309" dy="949" grid="0" gridSize="10" guides="1" tooltips="1" connect="1" arrows="1" fold="1" page="0" pageScale="1" pageWidth="1169" pageHeight="827" math="0" shadow="0">
      <root>
        <mxCell id="mo_HTYvLQI3ZSbI5TJ53-0" />
        <mxCell id="mo_HTYvLQI3ZSbI5TJ53-1" parent="mo_HTYvLQI3ZSbI5TJ53-0" />
        <mxCell id="mo_HTYvLQI3ZSbI5TJ53-3" value="" style="group;fontSize=24;" vertex="1" connectable="0" parent="mo_HTYvLQI3ZSbI5TJ53-1">
          <mxGeometry x="-100" y="207" width="539" height="377" as="geometry" />
        </mxCell>
        <mxCell id="KZZOVGguEHcN7dKIfZ-3-1" value="" style="rounded=1;whiteSpace=wrap;html=1;fillColor=default;fontSize=24;" vertex="1" parent="mo_HTYvLQI3ZSbI5TJ53-3">
          <mxGeometry x="-26.486796875" y="-14.679523809523811" width="565.486796875" height="391.6795238095238" as="geometry" />
        </mxCell>
        <mxCell id="mo_HTYvLQI3ZSbI5TJ53-4" value="" style="rounded=0;whiteSpace=wrap;html=1;fillColor=none;fontSize=24;" vertex="1" parent="mo_HTYvLQI3ZSbI5TJ53-3">
          <mxGeometry x="53.32603515625" y="58.455238095238094" width="186.09005811737805" height="110.0816326530612" as="geometry" />
        </mxCell>
        <mxCell id="mo_HTYvLQI3ZSbI5TJ53-5" value="MÃ³dulo DB" style="rounded=0;whiteSpace=wrap;html=1;fillColor=none;fontSize=24;" vertex="1" parent="mo_HTYvLQI3ZSbI5TJ53-3">
          <mxGeometry x="66.14833984375002" y="114.38380952380952" width="160.43671875000004" height="38.86690476190476" as="geometry" />
        </mxCell>
        <mxCell id="mo_HTYvLQI3ZSbI5TJ53-6" value="&lt;b&gt;RPA NFP&lt;/b&gt;" style="text;html=1;align=center;verticalAlign=middle;whiteSpace=wrap;rounded=0;fontSize=24;" vertex="1" parent="mo_HTYvLQI3ZSbI5TJ53-3">
          <mxGeometry x="63.10593749999999" y="68.81238095238095" width="166.53205078125" height="27.52238095238095" as="geometry" />
        </mxCell>
        <mxCell id="KZZOVGguEHcN7dKIfZ-3-6" value="" style="rounded=0;whiteSpace=wrap;html=1;fillColor=none;fontSize=24;" vertex="1" parent="mo_HTYvLQI3ZSbI5TJ53-3">
          <mxGeometry x="273.10539062500004" y="58.455238095238094" width="186.09005811737805" height="110.0816326530612" as="geometry" />
        </mxCell>
        <mxCell id="KZZOVGguEHcN7dKIfZ-3-7" value="MÃ³dulo DB" style="rounded=0;whiteSpace=wrap;html=1;fillColor=none;fontSize=24;" vertex="1" parent="mo_HTYvLQI3ZSbI5TJ53-3">
          <mxGeometry x="285.9276953125" y="114.38380952380952" width="160.43671875000004" height="38.86690476190476" as="geometry" />
        </mxCell>
        <mxCell id="KZZOVGguEHcN7dKIfZ-3-8" value="&lt;b&gt;RPA ONHAND&lt;/b&gt;" style="text;html=1;align=center;verticalAlign=middle;whiteSpace=wrap;rounded=0;fontSize=24;" vertex="1" parent="mo_HTYvLQI3ZSbI5TJ53-3">
          <mxGeometry x="282.88529296875004" y="68.81238095238095" width="166.53205078125" height="27.52238095238095" as="geometry" />
        </mxCell>
        <mxCell id="KZZOVGguEHcN7dKIfZ-3-9" value="" style="rounded=0;whiteSpace=wrap;html=1;fillColor=none;fontSize=24;" vertex="1" parent="mo_HTYvLQI3ZSbI5TJ53-3">
          <mxGeometry x="53.32603515624999" y="193.7885714285714" width="186.09005811737805" height="110.0816326530612" as="geometry" />
        </mxCell>
        <mxCell id="KZZOVGguEHcN7dKIfZ-3-10" value="MÃ³dulo DB" style="rounded=0;whiteSpace=wrap;html=1;fillColor=none;fontSize=24;" vertex="1" parent="mo_HTYvLQI3ZSbI5TJ53-3">
          <mxGeometry x="66.14833984375001" y="249.71714285714285" width="160.43671875000004" height="38.86690476190476" as="geometry" />
        </mxCell>
        <mxCell id="KZZOVGguEHcN7dKIfZ-3-11" value="&lt;b&gt;RPA EDW&lt;/b&gt;" style="text;html=1;align=center;verticalAlign=middle;whiteSpace=wrap;rounded=0;fontSize=24;" vertex="1" parent="mo_HTYvLQI3ZSbI5TJ53-3">
          <mxGeometry x="63.10593750000001" y="204.14571428571423" width="166.53205078125" height="27.52238095238095" as="geometry" />
        </mxCell>
        <mxCell id="KZZOVGguEHcN7dKIfZ-3-12" value="" style="rounded=0;whiteSpace=wrap;html=1;fillColor=none;fontSize=24;" vertex="1" parent="mo_HTYvLQI3ZSbI5TJ53-3">
          <mxGeometry x="273.10539062500004" y="193.7885714285714" width="186.09005811737805" height="110.0816326530612" as="geometry" />
        </mxCell>
        <mxCell id="KZZOVGguEHcN7dKIfZ-3-13" value="MÃ³dulo DB" style="rounded=0;whiteSpace=wrap;html=1;fillColor=none;fontSize=24;" vertex="1" parent="mo_HTYvLQI3ZSbI5TJ53-3">
          <mxGeometry x="285.9276953125" y="249.71714285714285" width="160.43671875000004" height="38.86690476190476" as="geometry" />
        </mxCell>
        <mxCell id="KZZOVGguEHcN7dKIfZ-3-14" value="&lt;b&gt;RPA BOM&lt;/b&gt;" style="text;html=1;align=center;verticalAlign=middle;whiteSpace=wrap;rounded=0;fontSize=24;" vertex="1" parent="mo_HTYvLQI3ZSbI5TJ53-3">
          <mxGeometry x="282.88529296875004" y="204.14571428571423" width="166.53205078125" height="27.52238095238095" as="geometry" />
        </mxCell>
        <mxCell id="KZZOVGguEHcN7dKIfZ-3-4" style="edgeStyle=orthogonalEdgeStyle;rounded=0;orthogonalLoop=1;jettySize=auto;html=1;exitX=1;exitY=0.5;exitDx=0;exitDy=0;exitPerimeter=0;entryX=0;entryY=0.5;entryDx=0;entryDy=0;" edge="1" parent="mo_HTYvLQI3ZSbI5TJ53-1" source="mo_HTYvLQI3ZSbI5TJ53-20" target="mo_HTYvLQI3ZSbI5TJ53-56">
          <mxGeometry relative="1" as="geometry" />
        </mxCell>
        <mxCell id="mo_HTYvLQI3ZSbI5TJ53-20" value="&lt;b&gt;&lt;font style=&quot;font-size: 24px;&quot;&gt;Banco de Dados&lt;/font&gt;&lt;/b&gt;" style="shape=cylinder3;whiteSpace=wrap;html=1;boundedLbl=1;backgroundOutline=1;size=15;" vertex="1" parent="mo_HTYvLQI3ZSbI5TJ53-1">
          <mxGeometry x="608" y="243" width="154" height="187" as="geometry" />
        </mxCell>
        <mxCell id="mo_HTYvLQI3ZSbI5TJ53-28" value="ETL (ExtraÃ§Ã£o, TransformaÃ§Ã£o e Carga)" style="text;html=1;align=center;verticalAlign=middle;whiteSpace=wrap;rounded=0;fontStyle=1;fontSize=24;fontColor=#FF0000;" vertex="1" parent="mo_HTYvLQI3ZSbI5TJ53-1">
          <mxGeometry x="-7" y="145" width="345" height="30" as="geometry" />
        </mxCell>
        <mxCell id="mo_HTYvLQI3ZSbI5TJ53-29" value="Armazenamento de Dados" style="text;html=1;align=center;verticalAlign=middle;whiteSpace=wrap;rounded=0;fontStyle=1;fontSize=24;fontColor=#FF0000;" vertex="1" parent="mo_HTYvLQI3ZSbI5TJ53-1">
          <mxGeometry x="585" y="183" width="200" height="30" as="geometry" />
        </mxCell>
        <mxCell id="mo_HTYvLQI3ZSbI5TJ53-30" value="IA/ML&amp;nbsp;&lt;div&gt;Analytics&lt;/div&gt;" style="text;html=1;align=center;verticalAlign=middle;whiteSpace=wrap;rounded=0;fontStyle=1;fontSize=24;fontColor=#FF0000;" vertex="1" parent="mo_HTYvLQI3ZSbI5TJ53-1">
          <mxGeometry x="1210" y="231" width="200" height="60" as="geometry" />
        </mxCell>
        <mxCell id="mo_HTYvLQI3ZSbI5TJ53-55" style="edgeStyle=orthogonalEdgeStyle;rounded=0;orthogonalLoop=1;jettySize=auto;html=1;entryX=0.5;entryY=0;entryDx=0;entryDy=0;flowAnimation=1;fontSize=24;" edge="1" parent="mo_HTYvLQI3ZSbI5TJ53-1" source="mo_HTYvLQI3ZSbI5TJ53-56" target="mo_HTYvLQI3ZSbI5TJ53-58">
          <mxGeometry relative="1" as="geometry" />
        </mxCell>
        <mxCell id="mo_HTYvLQI3ZSbI5TJ53-56" value="Processamento&amp;nbsp;&lt;div&gt;de Dados&lt;/div&gt;" style="shape=parallelogram;perimeter=parallelogramPerimeter;whiteSpace=wrap;html=1;fixedSize=1;fillColor=none;fontSize=24;" vertex="1" parent="mo_HTYvLQI3ZSbI5TJ53-1">
          <mxGeometry x="888" y="302" width="225" height="84" as="geometry" />
        </mxCell>
        <mxCell id="mo_HTYvLQI3ZSbI5TJ53-57" style="edgeStyle=orthogonalEdgeStyle;rounded=0;orthogonalLoop=1;jettySize=auto;html=1;exitX=1;exitY=0.5;exitDx=0;exitDy=0;entryX=0;entryY=0.5;entryDx=0;entryDy=0;flowAnimation=1;fontSize=24;" edge="1" parent="mo_HTYvLQI3ZSbI5TJ53-1" source="mo_HTYvLQI3ZSbI5TJ53-58" target="mo_HTYvLQI3ZSbI5TJ53-60">
          <mxGeometry relative="1" as="geometry" />
        </mxCell>
        <mxCell id="mo_HTYvLQI3ZSbI5TJ53-58" value="RegressÃ£o + SÃ©ries temporais" style="rounded=1;whiteSpace=wrap;html=1;fillColor=none;fontSize=24;" vertex="1" parent="mo_HTYvLQI3ZSbI5TJ53-1">
          <mxGeometry x="877" y="436" width="199" height="103" as="geometry" />
        </mxCell>
        <mxCell id="mo_HTYvLQI3ZSbI5TJ53-59" style="edgeStyle=orthogonalEdgeStyle;rounded=0;orthogonalLoop=1;jettySize=auto;html=1;exitX=1;exitY=0.5;exitDx=0;exitDy=0;entryX=0;entryY=0.5;entryDx=0;entryDy=0;flowAnimation=1;fontSize=24;" edge="1" parent="mo_HTYvLQI3ZSbI5TJ53-1" source="mo_HTYvLQI3ZSbI5TJ53-60" target="mo_HTYvLQI3ZSbI5TJ53-62">
          <mxGeometry relative="1" as="geometry" />
        </mxCell>
        <mxCell id="mo_HTYvLQI3ZSbI5TJ53-60" value="Insights Gerados" style="ellipse;whiteSpace=wrap;html=1;aspect=fixed;fillColor=none;fontSize=24;" vertex="1" parent="mo_HTYvLQI3ZSbI5TJ53-1">
          <mxGeometry x="1154" y="327.5" width="118.5" height="118.5" as="geometry" />
        </mxCell>
        <mxCell id="mo_HTYvLQI3ZSbI5TJ53-61" style="edgeStyle=orthogonalEdgeStyle;rounded=0;orthogonalLoop=1;jettySize=auto;html=1;exitX=0.5;exitY=1;exitDx=0;exitDy=0;flowAnimation=1;" edge="1" parent="mo_HTYvLQI3ZSbI5TJ53-1" source="mo_HTYvLQI3ZSbI5TJ53-62" target="mo_HTYvLQI3ZSbI5TJ53-63">
          <mxGeometry relative="1" as="geometry" />
        </mxCell>
        <mxCell id="mo_HTYvLQI3ZSbI5TJ53-62" value="SaÃ­da&amp;nbsp;&lt;div&gt;de Dados&lt;/div&gt;" style="shape=parallelogram;perimeter=parallelogramPerimeter;whiteSpace=wrap;html=1;fixedSize=1;fillColor=none;fontSize=24;" vertex="1" parent="mo_HTYvLQI3ZSbI5TJ53-1">
          <mxGeometry x="1335.5" y="349" width="177.5" height="77" as="geometry" />
        </mxCell>
        <mxCell id="mo_HTYvLQI3ZSbI5TJ53-63" value="" style="sketch=0;pointerEvents=1;shadow=0;dashed=0;html=1;strokeColor=none;fillColor=#434445;aspect=fixed;labelPosition=center;verticalLabelPosition=bottom;verticalAlign=top;align=center;outlineConnect=0;shape=mxgraph.vvd.nsx_dashboard;" vertex="1" parent="mo_HTYvLQI3ZSbI5TJ53-1">
          <mxGeometry x="1370.49" y="566" width="107.53" height="100" as="geometry" />
        </mxCell>
        <mxCell id="KZZOVGguEHcN7dKIfZ-3-3" style="edgeStyle=orthogonalEdgeStyle;rounded=0;orthogonalLoop=1;jettySize=auto;html=1;exitX=1;exitY=0.5;exitDx=0;exitDy=0;" edge="1" parent="mo_HTYvLQI3ZSbI5TJ53-1" source="KZZOVGguEHcN7dKIfZ-3-1" target="mo_HTYvLQI3ZSbI5TJ53-20">
          <mxGeometry relative="1" as="geometry" />
        </mxCell>
      </root>
    </mxGraphModel>
  </diagram>
  <diagram id="WIgd_d4OVcWPeBQYmflu" name="PÃ¡gina-5">
    <mxGraphModel dx="2100" dy="1044" grid="1" gridSize="10" guides="1" tooltips="1" connect="1" arrows="1" fold="1" page="1" pageScale="1" pageWidth="1169" pageHeight="827" math="0" shadow="0">
      <root>
        <mxCell id="0" />
        <mxCell id="1" parent="0" />
        <mxCell id="ZT8LFdzP2tOHFrwQ3Jcm-3" style="edgeStyle=orthogonalEdgeStyle;rounded=0;orthogonalLoop=1;jettySize=auto;html=1;exitX=0.75;exitY=0;exitDx=0;exitDy=0;entryX=0.5;entryY=0;entryDx=0;entryDy=0;" edge="1" parent="1" source="ZT8LFdzP2tOHFrwQ3Jcm-1" target="ZT8LFdzP2tOHFrwQ3Jcm-2">
          <mxGeometry relative="1" as="geometry" />
        </mxCell>
        <mxCell id="ZT8LFdzP2tOHFrwQ3Jcm-1" value="" style="shape=image;html=1;verticalAlign=top;verticalLabelPosition=bottom;labelBackgroundColor=#ffffff;imageAspect=0;aspect=fixed;image=https://cdn0.iconfinder.com/data/icons/phosphor-duotone-vol-3/256/robot-duotone-128.png" vertex="1" parent="1">
          <mxGeometry x="100" y="190" width="88" height="88" as="geometry" />
        </mxCell>
        <mxCell id="ZT8LFdzP2tOHFrwQ3Jcm-2" value="" style="shape=image;html=1;verticalAlign=top;verticalLabelPosition=bottom;labelBackgroundColor=#ffffff;imageAspect=0;aspect=fixed;image=https://cdn1.iconfinder.com/data/icons/Futurosoft%20Icons%200.5.2/128x128/mimetypes/xls.png" vertex="1" parent="1">
          <mxGeometry x="200" y="260" width="128" height="128" as="geometry" />
        </mxCell>
        <mxCell id="ZT8LFdzP2tOHFrwQ3Jcm-4" value="" style="image;aspect=fixed;perimeter=ellipsePerimeter;html=1;align=center;shadow=0;dashed=0;spacingTop=3;image=img/lib/active_directory/database_server.svg;" vertex="1" parent="1">
          <mxGeometry x="205" y="430" width="123" height="150" as="geometry" />
        </mxCell>
        <mxCell id="ZT8LFdzP2tOHFrwQ3Jcm-18" value="" style="group" vertex="1" connectable="0" parent="1">
          <mxGeometry x="470" y="358" width="250" height="260" as="geometry" />
        </mxCell>
        <mxCell id="ZT8LFdzP2tOHFrwQ3Jcm-9" value="" style="rounded=0;whiteSpace=wrap;html=1;fillColor=none;" vertex="1" parent="ZT8LFdzP2tOHFrwQ3Jcm-18">
          <mxGeometry width="250" height="260" as="geometry" />
        </mxCell>
        <mxCell id="ZT8LFdzP2tOHFrwQ3Jcm-10" value="" style="strokeWidth=2;html=1;shape=mxgraph.flowchart.database;whiteSpace=wrap;" vertex="1" parent="ZT8LFdzP2tOHFrwQ3Jcm-18">
          <mxGeometry x="50" y="20" width="90" height="120" as="geometry" />
        </mxCell>
        <mxCell id="ZT8LFdzP2tOHFrwQ3Jcm-11" value="" style="strokeWidth=2;html=1;shape=mxgraph.flowchart.database;whiteSpace=wrap;" vertex="1" parent="ZT8LFdzP2tOHFrwQ3Jcm-18">
          <mxGeometry x="90" y="68" width="90" height="120" as="geometry" />
        </mxCell>
        <mxCell id="ZT8LFdzP2tOHFrwQ3Jcm-12" value="" style="strokeWidth=2;html=1;shape=mxgraph.flowchart.database;whiteSpace=wrap;" vertex="1" parent="ZT8LFdzP2tOHFrwQ3Jcm-18">
          <mxGeometry x="40" y="110" width="90" height="120" as="geometry" />
        </mxCell>
        <mxCell id="ZT8LFdzP2tOHFrwQ3Jcm-13" value="" style="strokeWidth=2;html=1;shape=mxgraph.flowchart.database;whiteSpace=wrap;" vertex="1" parent="ZT8LFdzP2tOHFrwQ3Jcm-18">
          <mxGeometry x="130" y="130" width="90" height="120" as="geometry" />
        </mxCell>
        <mxCell id="ZT8LFdzP2tOHFrwQ3Jcm-14" value="N-FP DATA" style="text;html=1;align=center;verticalAlign=middle;whiteSpace=wrap;rounded=0;fontStyle=1" vertex="1" parent="ZT8LFdzP2tOHFrwQ3Jcm-18">
          <mxGeometry x="65" y="25" width="60" height="30" as="geometry" />
        </mxCell>
        <mxCell id="ZT8LFdzP2tOHFrwQ3Jcm-15" value="BOM DATA" style="text;html=1;align=center;verticalAlign=middle;whiteSpace=wrap;rounded=0;fontStyle=1" vertex="1" parent="ZT8LFdzP2tOHFrwQ3Jcm-18">
          <mxGeometry x="110" y="73" width="60" height="30" as="geometry" />
        </mxCell>
        <mxCell id="ZT8LFdzP2tOHFrwQ3Jcm-16" value="EDW DATA" style="text;html=1;align=center;verticalAlign=middle;whiteSpace=wrap;rounded=0;fontStyle=1" vertex="1" parent="ZT8LFdzP2tOHFrwQ3Jcm-18">
          <mxGeometry x="145" y="134" width="60" height="30" as="geometry" />
        </mxCell>
        <mxCell id="ZT8LFdzP2tOHFrwQ3Jcm-17" value="ONHAND DATA" style="text;html=1;align=center;verticalAlign=middle;whiteSpace=wrap;rounded=0;fontStyle=1" vertex="1" parent="ZT8LFdzP2tOHFrwQ3Jcm-18">
          <mxGeometry x="55" y="164" width="60" height="30" as="geometry" />
        </mxCell>
        <mxCell id="ZT8LFdzP2tOHFrwQ3Jcm-24" value="" style="rounded=1;whiteSpace=wrap;html=1;" vertex="1" parent="1">
          <mxGeometry x="905" y="690" width="470" height="420" as="geometry" />
        </mxCell>
        <mxCell id="ZT8LFdzP2tOHFrwQ3Jcm-25" value="Aprendizado de MÃ¡quina" style="text;html=1;align=center;verticalAlign=middle;whiteSpace=wrap;rounded=0;fontSize=24;fontStyle=1" vertex="1" parent="1">
          <mxGeometry x="996.25" y="702" width="297.5" height="70" as="geometry" />
        </mxCell>
        <mxCell id="ZT8LFdzP2tOHFrwQ3Jcm-26" value="&lt;font style=&quot;font-size: 24px;&quot;&gt;Backpropagation&lt;/font&gt;" style="rounded=0;whiteSpace=wrap;html=1;" vertex="1" parent="1">
          <mxGeometry x="1015" y="766" width="260" height="60" as="geometry" />
        </mxCell>
        <mxCell id="ZT8LFdzP2tOHFrwQ3Jcm-27" value="" style="rounded=0;whiteSpace=wrap;html=1;" vertex="1" parent="1">
          <mxGeometry x="965" y="842" width="360" height="230" as="geometry" />
        </mxCell>
        <mxCell id="ZT8LFdzP2tOHFrwQ3Jcm-28" value="&lt;font style=&quot;font-size: 24px;&quot;&gt;RNN&lt;/font&gt;" style="rounded=0;whiteSpace=wrap;html=1;" vertex="1" parent="1">
          <mxGeometry x="1015" y="922" width="260" height="60" as="geometry" />
        </mxCell>
        <mxCell id="ZT8LFdzP2tOHFrwQ3Jcm-29" value="&lt;font style=&quot;font-size: 24px;&quot;&gt;LSTM&lt;/font&gt;" style="rounded=0;whiteSpace=wrap;html=1;" vertex="1" parent="1">
          <mxGeometry x="1015" y="992" width="260" height="60" as="geometry" />
        </mxCell>
        <mxCell id="ZT8LFdzP2tOHFrwQ3Jcm-30" value="&lt;font style=&quot;font-size: 24px;&quot;&gt;Aprendizado Profundo&lt;/font&gt;" style="text;html=1;align=center;verticalAlign=middle;whiteSpace=wrap;rounded=0;fontStyle=1" vertex="1" parent="1">
          <mxGeometry x="1010" y="862" width="270" height="30" as="geometry" />
        </mxCell>
        <mxCell id="ZT8LFdzP2tOHFrwQ3Jcm-31" value="&lt;font style=&quot;font-size: 24px;&quot;&gt;&lt;b&gt;MAPE&lt;/b&gt;&lt;/font&gt;" style="rounded=0;whiteSpace=wrap;html=1;" vertex="1" parent="1">
          <mxGeometry x="990" y="1239" width="120" height="60" as="geometry" />
        </mxCell>
        <mxCell id="ZT8LFdzP2tOHFrwQ3Jcm-32" value="&lt;font style=&quot;font-size: 24px;&quot;&gt;&lt;b&gt;RMSE&lt;/b&gt;&lt;/font&gt;" style="rounded=0;whiteSpace=wrap;html=1;" vertex="1" parent="1">
          <mxGeometry x="1173.75" y="1239" width="120" height="60" as="geometry" />
        </mxCell>
        <mxCell id="ZT8LFdzP2tOHFrwQ3Jcm-33" value="" style="endArrow=classic;html=1;rounded=0;entryX=0.5;entryY=0;entryDx=0;entryDy=0;exitX=0.5;exitY=1;exitDx=0;exitDy=0;strokeWidth=3;" edge="1" parent="1" source="ZT8LFdzP2tOHFrwQ3Jcm-24" target="ZT8LFdzP2tOHFrwQ3Jcm-31">
          <mxGeometry width="50" height="50" relative="1" as="geometry">
            <mxPoint x="1290" y="1132" as="sourcePoint" />
            <mxPoint x="1340" y="1082" as="targetPoint" />
          </mxGeometry>
        </mxCell>
        <mxCell id="ZT8LFdzP2tOHFrwQ3Jcm-34" value="" style="endArrow=classic;html=1;rounded=0;exitX=0.5;exitY=1;exitDx=0;exitDy=0;strokeWidth=3;" edge="1" parent="1" source="ZT8LFdzP2tOHFrwQ3Jcm-24" target="ZT8LFdzP2tOHFrwQ3Jcm-32">
          <mxGeometry width="50" height="50" relative="1" as="geometry">
            <mxPoint x="1290" y="1132" as="sourcePoint" />
            <mxPoint x="1340" y="1082" as="targetPoint" />
          </mxGeometry>
        </mxCell>
        <mxCell id="Eiq-8WbWI9AK-VYHC-U3-1" value="" style="group" vertex="1" connectable="0" parent="1">
          <mxGeometry x="980" y="408" width="320" height="160" as="geometry" />
        </mxCell>
        <mxCell id="ZT8LFdzP2tOHFrwQ3Jcm-21" value="" style="rounded=0;whiteSpace=wrap;html=1;fillColor=none;" vertex="1" parent="Eiq-8WbWI9AK-VYHC-U3-1">
          <mxGeometry width="320" height="160" as="geometry" />
        </mxCell>
        <mxCell id="ZT8LFdzP2tOHFrwQ3Jcm-22" value="Treinamento" style="rounded=0;whiteSpace=wrap;html=1;fontSize=24;" vertex="1" parent="Eiq-8WbWI9AK-VYHC-U3-1">
          <mxGeometry x="41" y="30" width="240" height="40" as="geometry" />
        </mxCell>
        <mxCell id="ZT8LFdzP2tOHFrwQ3Jcm-23" value="Teste" style="rounded=0;whiteSpace=wrap;html=1;fontSize=24;" vertex="1" parent="Eiq-8WbWI9AK-VYHC-U3-1">
          <mxGeometry x="41" y="90" width="240" height="40" as="geometry" />
        </mxCell>
        <mxCell id="Eiq-8WbWI9AK-VYHC-U3-3" value="TÃ©cnicas" style="text;html=1;align=left;verticalAlign=middle;whiteSpace=wrap;rounded=0;fontSize=24;fontStyle=1" vertex="1" parent="1">
          <mxGeometry x="1148.75" y="618" width="170" height="30" as="geometry" />
        </mxCell>
        <mxCell id="Eiq-8WbWI9AK-VYHC-U3-5" style="edgeStyle=orthogonalEdgeStyle;rounded=0;orthogonalLoop=1;jettySize=auto;html=1;exitX=1;exitY=0.5;exitDx=0;exitDy=0;entryX=0;entryY=0.5;entryDx=0;entryDy=0;fontSize=13;strokeWidth=3;" edge="1" parent="1" source="ZT8LFdzP2tOHFrwQ3Jcm-9" target="ZT8LFdzP2tOHFrwQ3Jcm-21">
          <mxGeometry relative="1" as="geometry" />
        </mxCell>
        <mxCell id="Eiq-8WbWI9AK-VYHC-U3-6" value="NormalizaÃ§Ã£o dos Dados" style="text;html=1;align=center;verticalAlign=middle;whiteSpace=wrap;rounded=0;fontSize=24;fontStyle=1" vertex="1" parent="1">
          <mxGeometry x="760" y="440" width="170" height="30" as="geometry" />
        </mxCell>
        <mxCell id="E_VGFVuU2EZmfq1LvXeR-1" style="edgeStyle=orthogonalEdgeStyle;rounded=0;orthogonalLoop=1;jettySize=auto;html=1;exitX=0.5;exitY=1;exitDx=0;exitDy=0;entryX=0.5;entryY=0;entryDx=0;entryDy=0;strokeWidth=3;" edge="1" parent="1" source="ZT8LFdzP2tOHFrwQ3Jcm-21" target="ZT8LFdzP2tOHFrwQ3Jcm-24">
          <mxGeometry relative="1" as="geometry" />
        </mxCell>
      </root>
    </mxGraphModel>
  </diagram>
</mxfile>
